<?xml version="1.0" encoding="UTF-8"?>
<svg xmlns="http://www.w3.org/2000/svg" xmlns:xlink="http://www.w3.org/1999/xlink" viewBox="0 0 1080 1080">
  <defs>
    <style>
      .cls-1 {
        fill: url(#linear-gradient-2);
      }

      .cls-2, .cls-3, .cls-4, .cls-5, .cls-6, .cls-7, .cls-8, .cls-9, .cls-10, .cls-11, .cls-12 {
        fill: #fff;
      }

      .cls-3 {
        opacity: .9;
      }

      .cls-4, .cls-13 {
        opacity: .4;
      }

      .cls-14, .cls-12 {
        opacity: .6;
      }

      .cls-5 {
        opacity: 0;
      }

      .cls-6 {
        opacity: .3;
      }

      .cls-15 {
        fill: url(#linear-gradient-6);
      }

      .cls-16 {
        isolation: isolate;
      }

      .cls-7 {
        opacity: .1;
      }

      .cls-8 {
        opacity: .5;
      }

      .cls-9 {
        opacity: .8;
      }

      .cls-17 {
        fill: url(#linear-gradient-10);
      }

      .cls-10 {
        opacity: .7;
      }

      .cls-18 {
        fill: url(#linear-gradient-5);
      }

      .cls-11 {
        opacity: .2;
      }

      .cls-19 {
        fill: none;
      }

      .cls-13 {
        mix-blend-mode: overlay;
      }

      .cls-20 {
        fill: url(#linear-gradient-7);
      }

      .cls-21 {
        fill: url(#linear-gradient-9);
      }

      .cls-22 {
        fill: url(#linear-gradient-3);
      }

      .cls-23 {
        fill: #320a70;
      }

      .cls-24 {
        fill: url(#linear-gradient);
      }

      .cls-25 {
        fill: url(#linear-gradient-4);
      }

      .cls-26 {
        fill: url(#linear-gradient-8);
      }
    </style>
    <linearGradient id="linear-gradient" x1="321.9" y1="404.87" x2="42.78" y2="732.43" gradientUnits="userSpaceOnUse">
      <stop offset="0" stop-color="#0faba8"/>
      <stop offset=".13" stop-color="#10a7a8"/>
      <stop offset=".24" stop-color="#149da8"/>
      <stop offset=".34" stop-color="#1c8ca9"/>
      <stop offset=".44" stop-color="#2674aa"/>
      <stop offset=".53" stop-color="#3355ac"/>
      <stop offset=".61" stop-color="#4330ae"/>
      <stop offset=".63" stop-color="#4827af"/>
      <stop offset="1" stop-color="#bb44f5"/>
    </linearGradient>
    <linearGradient id="linear-gradient-2" x1="380.7" y1="454.98" x2="101.58" y2="782.54" xlink:href="#linear-gradient"/>
    <linearGradient id="linear-gradient-3" x1="319.98" y1="403.24" x2="40.86" y2="730.8" xlink:href="#linear-gradient"/>
    <linearGradient id="linear-gradient-4" x1="338.76" y1="419.52" x2="59.64" y2="747.08" xlink:href="#linear-gradient"/>
    <linearGradient id="linear-gradient-5" x1="287.84" y1="375.84" x2="8.72" y2="703.41" xlink:href="#linear-gradient"/>
    <linearGradient id="linear-gradient-6" x1="352.97" y1="431.34" x2="73.85" y2="758.91" xlink:href="#linear-gradient"/>
    <linearGradient id="linear-gradient-7" x1="442.09" y1="507.29" x2="162.97" y2="834.85" xlink:href="#linear-gradient"/>
    <linearGradient id="linear-gradient-8" x1="421.15" y1="489.44" x2="142.03" y2="817.01" xlink:href="#linear-gradient"/>
    <linearGradient id="linear-gradient-9" x1="350.44" y1="429.19" x2="71.32" y2="756.76" xlink:href="#linear-gradient"/>
    <linearGradient id="linear-gradient-10" x1="255.94" y1="348.66" x2="-23.19" y2="676.23" xlink:href="#linear-gradient"/>
  </defs>
  <g class="cls-16">
    <g id="Layer_1" data-name="Layer 1">
      <g>
        <g>
          <path class="cls-24" d="M259.3,543.08c14.91-30.11,15.47-83.47-11.78-115.68-20.04,35.9-9.13,87.74,11.78,115.68Z"/>
          <path class="cls-1" d="M376.74,466.47c-19.71,.14-47.23,17.43-52.95,50.24,25.44-2.88,50.6-28.1,52.95-50.24Z"/>
          <path class="cls-22" d="M310.5,443.84c3.26-3.24,7.71-7.04,13.5-10.53,7.96-4.8,15.44-7.18,20.84-8.44-7.74-5.99-18.58-13.13-32.54-19-11.35-4.77-21.75-7.44-30.18-8.98,5.17,6.05,10.87,13.59,16.34,22.69,5.28,8.78,9.17,17.06,12.05,24.26Z"/>
          <path class="cls-25" d="M301.98,584.9c23.35-24.06,51.68-32.4,60.42-34.67,15.82-4.12,29.54-4.5,38.94-4.09,.42-9.91-.02-23.38-3.58-38.82-3.32-14.39-8.31-25.99-12.7-34.43-2.47,6.7-9.89,24.12-28.45,37.43-17.07,12.24-34.25,14.33-41.47,14.79,.52-7.13,2.72-23.85,14.89-40.02,16.22-21.56,38.91-27.18,45.12-28.51-3.3-4.71-7.3-9.81-12.1-15.03-3.52-3.83-7-7.2-10.32-10.16-7.31,2.38-16.29,6.04-25.85,11.79-7.44,4.48-13.54,9.2-18.38,13.46-3.77-9.29-9-20.18-16.32-31.72-7.79-12.29-15.94-22.16-23.12-29.8-.41,.61-7.47,11.15-7.88,11.76-.4,.59-7.39,11.03-7.79,11.62h0c38.83,42.43,26.1,118.07,7.59,143.33-7.13-7.66-30.89-35.08-33.49-77.56-3.02-49.39,24.78-82.94,30.65-89.72-6.13-.1-13.23,.18-21.04,1.19-7.57,.98-14.31,2.46-20.08,4.05-5.92,7.68-14.58,20.9-19.76,39.3-4.63,16.48-4.67,30.73-3.97,39.97-6.22-5.48-12.18-9.21-16.79-11.69-10.81-5.81-20.1-7.93-23.21-8.58-6.75-1.4-12.6-1.73-16.94-1.73-2.98,4.28-6.1,9.26-9.12,14.95-3.04,5.74-5.43,11.17-7.31,16.08,8.5,.25,37.51,2.17,63.24,24.54,21.43,18.64,28.71,41.14,31.08,50.02-8.71,1.34-32.57,3.83-58.7-8.73-25.53-12.27-38.43-31.8-42.93-39.43-1.65,9.31-2.94,21.83-1.84,36.5,1.09,14.53,4.18,26.61,7.16,35.53,36.73-11.58,75.75-1.06,98.32,26.16,24.41,29.44,18.9,65.56,17.92,71.35,4.89,.73,10.38,1.3,16.38,1.52,6.14,.22,11.78,.05,16.8-.34-.6-8.97-3.27-61.24,34.66-100.32Z"/>
          <path class="cls-18" d="M200.5,553.78c-16.18-42.08-57.25-57.87-83.46-52.93,8.93,28.79,48.93,55.72,83.46,52.93Z"/>
          <path class="cls-15" d="M158.89,596.5c13.9,23.94,37.04,42.44,63.56,50.61-5.71-29.05-33.74-51.52-63.56-50.61Z"/>
          <path class="cls-20" d="M376.44,559.75c-2.89,43.87-53.52,95.79-97.21,99.96v24.08c13.2-2.2,46.65-9.58,76.57-37.86,35.82-33.84,42.86-75.2,44.5-87.53-3.36-.37-7.35-.56-11.81-.32-4.61,.25-8.67,.91-12.05,1.66Z"/>
          <path class="cls-26" d="M281.26,646.76c1.46-.28,3.98-.89,5.44-1.27l.04,.02c39.14-9.66,70.5-43.77,76.72-83.52-40.74,9.46-74.05,43.85-82.2,84.77Z"/>
          <path class="cls-21" d="M222.49,657.11c-40.96-13.11-57.13-33.58-75.26-60.57-8.51,0-17.03,0-25.54,.01,5.01,11.87,16.31,34.27,39.65,54.21,23.54,20.11,47.66,27.75,60.19,30.81,.63-3.54,1.15-7.64,1.33-12.2,.18-4.56,0-8.69-.36-12.27Z"/>
          <path class="cls-17" d="M186.33,463.41c.44-8.06,1.76-18.41,5.2-30.02,3.67-12.37,8.61-22.27,12.89-29.49-9.23,3.5-21.43,9.2-34.24,18.53-12.65,9.22-21.73,18.96-27.86,26.61,6,.28,14.19,1.28,23.42,4.35,8.81,2.93,15.71,6.8,20.58,10.03Z"/>
        </g>
        <g>
          <path class="cls-23" d="M506.24,583.68l-21.25-30.47c-.89,.1-2.23,.15-4.01,.15h-23.48v30.32h-19.32v-104.03h42.8c9.01,0,16.87,1.49,23.56,4.46,6.69,2.97,11.82,7.23,15.38,12.78,3.57,5.55,5.35,12.14,5.35,19.77s-1.91,14.56-5.72,20.21c-3.81,5.65-9.29,9.86-16.42,12.63l23.93,34.18h-20.81Zm-6.98-82.33c-4.36-3.57-10.75-5.35-19.17-5.35h-22.59v41.46h22.59c8.42,0,14.81-1.81,19.17-5.42,4.36-3.62,6.54-8.74,6.54-15.38s-2.18-11.74-6.54-15.31Z"/>
          <path class="cls-23" d="M569.56,578.25c-8.52-4.61-15.21-11-20.06-19.17-4.86-8.17-7.28-17.31-7.28-27.42s2.43-19.25,7.28-27.42c4.85-8.17,11.54-14.56,20.06-19.17,8.52-4.61,18.08-6.91,28.68-6.91s20.16,2.3,28.68,6.91c8.52,4.61,15.21,10.98,20.06,19.1,4.85,8.13,7.28,17.29,7.28,27.49s-2.43,19.37-7.28,27.49c-4.86,8.13-11.54,14.49-20.06,19.1-8.52,4.61-18.08,6.91-28.68,6.91s-20.16-2.3-28.68-6.91Zm47.41-14.71c5.55-3.12,9.91-7.48,13.08-13.08,3.17-5.6,4.76-11.86,4.76-18.8s-1.59-13.2-4.76-18.8c-3.17-5.6-7.53-9.96-13.08-13.08-5.55-3.12-11.79-4.68-18.73-4.68s-13.18,1.56-18.72,4.68c-5.55,3.12-9.91,7.48-13.08,13.08-3.17,5.6-4.76,11.87-4.76,18.8s1.58,13.2,4.76,18.8c3.17,5.6,7.53,9.96,13.08,13.08,5.55,3.12,11.79,4.68,18.72,4.68s13.18-1.56,18.73-4.68Z"/>
          <path class="cls-23" d="M697.53,578.25c-8.52-4.61-15.21-11-20.06-19.17-4.86-8.17-7.28-17.31-7.28-27.42s2.43-19.25,7.28-27.42c4.85-8.17,11.54-14.56,20.06-19.17,8.52-4.61,18.08-6.91,28.68-6.91s20.16,2.3,28.68,6.91c8.52,4.61,15.21,10.98,20.06,19.1,4.85,8.13,7.28,17.29,7.28,27.49s-2.43,19.37-7.28,27.49c-4.86,8.13-11.54,14.49-20.06,19.1-8.52,4.61-18.08,6.91-28.68,6.91s-20.16-2.3-28.68-6.91Zm47.41-14.71c5.55-3.12,9.91-7.48,13.08-13.08,3.17-5.6,4.76-11.86,4.76-18.8s-1.59-13.2-4.76-18.8c-3.17-5.6-7.53-9.96-13.08-13.08-5.55-3.12-11.79-4.68-18.73-4.68s-13.18,1.56-18.72,4.68c-5.55,3.12-9.91,7.48-13.08,13.08-3.17,5.6-4.76,11.87-4.76,18.8s1.58,13.2,4.76,18.8c3.17,5.6,7.53,9.96,13.08,13.08,5.55,3.12,11.79,4.68,18.72,4.68s13.18-1.56,18.73-4.68Z"/>
          <path class="cls-23" d="M825.21,495.99h-34.48v-16.35h88.28v16.35h-34.48v87.68h-19.32v-87.68Z"/>
          <path class="cls-23" d="M904.36,581.74c-7.48-2.28-13.4-5.3-17.76-9.07l6.69-15.01c4.26,3.37,9.49,6.12,15.68,8.25,6.19,2.13,12.41,3.19,18.65,3.19,7.73,0,13.5-1.24,17.31-3.72,3.81-2.47,5.72-5.74,5.72-9.81,0-2.97-1.07-5.42-3.2-7.36-2.13-1.93-4.83-3.44-8.1-4.53-3.27-1.09-7.73-2.33-13.38-3.72-7.93-1.88-14.34-3.76-19.25-5.65-4.9-1.88-9.12-4.83-12.63-8.84-3.52-4.01-5.28-9.44-5.28-16.27,0-5.74,1.56-10.97,4.68-15.68,3.12-4.7,7.83-8.45,14.12-11.22,6.29-2.77,13.99-4.16,23.11-4.16,6.34,0,12.58,.79,18.73,2.38,6.14,1.59,11.44,3.86,15.9,6.84l-6.09,15.01c-4.56-2.68-9.31-4.7-14.27-6.09-4.96-1.39-9.76-2.08-14.42-2.08-7.63,0-13.3,1.29-17.02,3.86-3.72,2.58-5.57,6-5.57,10.25,0,2.97,1.06,5.4,3.2,7.28,2.13,1.88,4.83,3.37,8.1,4.46,3.27,1.09,7.73,2.33,13.38,3.72,7.73,1.78,14.07,3.64,19.02,5.57,4.95,1.93,9.19,4.88,12.71,8.84,3.52,3.96,5.28,9.31,5.28,16.05,0,5.75-1.56,10.95-4.68,15.6-3.12,4.66-7.85,8.37-14.19,11.15-6.34,2.77-14.07,4.16-23.18,4.16-8.03,0-15.78-1.14-23.26-3.42Z"/>
          <path class="cls-23" d="M473.67,609.97l-16.41,36.81h-2.68l-16.41-36.81h2.95l14.88,33.34,14.88-33.34h2.79Z"/>
          <path class="cls-23" d="M511.61,644.36v2.42h-25.4v-36.81h24.61v2.42h-21.93v14.51h19.61v2.37h-19.61v15.09h22.72Z"/>
          <path class="cls-23" d="M554.13,609.97v36.81h-2.21l-25.08-31.97v31.97h-2.68v-36.81h2.26l25.03,31.97v-31.97h2.68Z"/>
          <path class="cls-23" d="M579.93,612.39h-13.25v-2.42h29.18v2.42h-13.25v34.39h-2.68v-34.39Z"/>
          <path class="cls-23" d="M612.27,642.99c-2.58-2.7-3.86-6.64-3.86-11.83v-21.19h2.68v21.09c0,4.52,1.03,7.91,3.1,10.15,2.07,2.24,5.07,3.37,8.99,3.37s6.87-1.12,8.94-3.37c2.07-2.24,3.1-5.63,3.1-10.15v-21.09h2.68v21.19c0,5.19-1.3,9.13-3.89,11.83-2.59,2.7-6.22,4.05-10.89,4.05s-8.28-1.35-10.86-4.05Z"/>
          <path class="cls-23" d="M676.01,646.78l-8.78-12.3c-1.3,.18-2.49,.26-3.58,.26h-10.52v12.04h-2.68v-36.81h13.2c4.63,0,8.26,1.1,10.88,3.29,2.63,2.19,3.94,5.23,3.94,9.12,0,2.91-.74,5.36-2.23,7.34-1.49,1.98-3.62,3.37-6.39,4.18l9.2,12.88h-3.05Zm-12.36-14.41c3.93,0,6.92-.87,8.99-2.6,2.07-1.74,3.1-4.2,3.1-7.39s-1.03-5.65-3.1-7.39c-2.07-1.74-5.07-2.6-8.99-2.6h-10.52v19.98h10.52Z"/>
          <path class="cls-23" d="M717.01,644.36v2.42h-25.4v-36.81h24.61v2.42h-21.93v14.51h19.61v2.37h-19.61v15.09h22.72Z"/>
          <path class="cls-23" d="M748.21,645.65c-2.44-.93-4.34-2.13-5.71-3.6l1.21-2c1.3,1.37,3.04,2.48,5.23,3.34,2.19,.86,4.5,1.29,6.91,1.29,3.51,0,6.15-.67,7.94-2,1.79-1.33,2.68-3.07,2.68-5.21,0-1.65-.47-2.96-1.42-3.94-.95-.98-2.12-1.74-3.52-2.26-1.4-.53-3.3-1.07-5.68-1.63-2.7-.66-4.86-1.31-6.49-1.95-1.63-.63-3.02-1.6-4.15-2.92-1.14-1.31-1.71-3.08-1.71-5.28,0-1.79,.47-3.43,1.42-4.92,.95-1.49,2.39-2.67,4.34-3.55,1.95-.88,4.37-1.31,7.28-1.31,2.03,0,4.03,.3,5.99,.89,1.96,.6,3.66,1.4,5.1,2.42l-1,2.16c-1.47-1.02-3.09-1.79-4.86-2.31-1.77-.53-3.51-.79-5.23-.79-3.4,0-5.98,.68-7.73,2.05-1.75,1.37-2.63,3.14-2.63,5.31,0,1.65,.47,2.96,1.42,3.94,.95,.98,2.12,1.74,3.52,2.26,1.4,.53,3.31,1.09,5.73,1.68,2.7,.67,4.86,1.31,6.47,1.95,1.61,.63,2.99,1.59,4.13,2.87,1.14,1.28,1.71,3.01,1.71,5.18,0,1.79-.48,3.42-1.45,4.89-.96,1.47-2.45,2.65-4.44,3.52-2,.88-4.45,1.31-7.36,1.31-2.7,0-5.27-.46-7.7-1.39Z"/>
          <path class="cls-23" d="M795.76,612.39h-13.25v-2.42h29.18v2.42h-13.25v34.39h-2.68v-34.39Z"/>
          <path class="cls-23" d="M828.91,642.99c-2.58-2.7-3.86-6.64-3.86-11.83v-21.19h2.68v21.09c0,4.52,1.03,7.91,3.1,10.15,2.07,2.24,5.07,3.37,8.99,3.37s6.87-1.12,8.94-3.37c2.07-2.24,3.1-5.63,3.1-10.15v-21.09h2.68v21.19c0,5.19-1.3,9.13-3.89,11.83-2.59,2.7-6.22,4.05-10.89,4.05s-8.28-1.35-10.86-4.05Z"/>
          <path class="cls-23" d="M867.89,609.97h14.57c3.82,0,7.21,.79,10.18,2.37,2.96,1.58,5.27,3.76,6.91,6.55,1.65,2.79,2.47,5.95,2.47,9.49s-.82,6.7-2.47,9.49c-1.65,2.79-3.95,4.97-6.91,6.55-2.96,1.58-6.36,2.37-10.18,2.37h-14.57v-36.81Zm14.36,34.39c3.4,0,6.4-.67,8.99-2.03,2.59-1.35,4.59-3.23,5.99-5.65,1.4-2.42,2.1-5.19,2.1-8.31s-.7-5.89-2.1-8.31c-1.4-2.42-3.4-4.3-5.99-5.65-2.59-1.35-5.59-2.03-8.99-2.03h-11.67v31.97h11.67Z"/>
          <path class="cls-23" d="M915.37,609.97h2.68v36.81h-2.68v-36.81Z"/>
          <path class="cls-23" d="M940.75,644.6c-2.91-1.63-5.2-3.87-6.86-6.7-1.67-2.84-2.5-6.01-2.5-9.52s.83-6.68,2.5-9.52c1.66-2.84,3.95-5.07,6.86-6.7,2.91-1.63,6.17-2.45,9.78-2.45s6.87,.81,9.78,2.42c2.91,1.61,5.2,3.84,6.86,6.68,1.66,2.84,2.5,6.03,2.5,9.57s-.83,6.73-2.5,9.57c-1.67,2.84-3.95,5.07-6.86,6.68-2.91,1.61-6.17,2.42-9.78,2.42s-6.87-.82-9.78-2.45Zm18.14-2.13c2.49-1.4,4.45-3.34,5.89-5.81,1.44-2.47,2.16-5.23,2.16-8.28s-.72-5.81-2.16-8.28c-1.44-2.47-3.4-4.41-5.89-5.81-2.49-1.4-5.28-2.1-8.36-2.1s-5.88,.7-8.39,2.1c-2.51,1.4-4.48,3.34-5.92,5.81-1.44,2.47-2.16,5.23-2.16,8.28s.72,5.81,2.16,8.28c1.44,2.47,3.41,4.41,5.92,5.81,2.51,1.4,5.3,2.1,8.39,2.1s5.87-.7,8.36-2.1Z"/>
        </g>
        <g>
          <g class="cls-13">
            <g>
              <path class="cls-8" d="M186.33,463.41c-4.87-3.23-11.77-7.09-20.59-10.03-9.23-3.07-17.42-4.07-23.42-4.35,1.4-1.75,2.95-3.6,4.68-5.53,.61-.69,1.25-1.4,1.91-2.12,.32-.36,.66-.71,1-1.07,.33-.37,.68-.72,1.03-1.09,1.05-1.09,2.14-2.2,3.29-3.32h.01l32.09,27.5Z"/>
              <path class="cls-9" d="M186.33,463.41l-32.09-27.5c.36-.36,.71-.7,1.08-1.05,.34-.32,.69-.66,1.03-.98,.56-.53,1.14-1.06,1.72-1.59,.01-.02,.01-.03,.02-.02,.03-.05,.06-.07,.09-.09,.03-.03,.07-.07,.1-.08,.16-.17,.33-.31,.49-.45,.07-.08,.15-.14,.22-.2,.31-.29,.63-.56,.94-.84,.55-.49,1.12-.98,1.69-1.46,.36-.32,.72-.62,1.09-.92,.03-.05,.08-.07,.11-.09,.53-.44,1.05-.87,1.59-1.3,.52-.44,1.05-.85,1.58-1.26,.57-.46,1.17-.92,1.77-1.38,.78-.59,1.59-1.18,2.4-1.78,1.66-1.21,3.31-2.36,4.94-3.45,.74-.48,1.46-.97,2.18-1.43,.71-.46,1.41-.91,2.13-1.35l6.89,47.21Z"/>
            </g>
            <g>
              <g>
                <path class="cls-5" d="M158.04,555.11l-46.15,1.89,28.93-11.75c4.35,3.1,9.23,6.06,14.69,8.69,.84,.4,1.69,.79,2.53,1.17Z"/>
                <path class="cls-2" d="M141.4,491.1c-4.14-1.03-7.93-1.7-11.22-2.15l-5.22-12.52v-.02c.37-.75,.75-1.48,1.13-2.24,.37-.71,.74-1.43,1.12-2.14,.47-.89,.94-1.76,1.43-2.61,.17-.32,.34-.62,.52-.93,.71-1.28,1.44-2.51,2.16-3.7,.2-.31,.38-.62,.56-.93,.36-.56,.7-1.13,1.05-1.67,.39-.6,.77-1.18,1.15-1.77,.24-.37,.48-.72,.71-1.08l6.62,31.77Z"/>
                <path class="cls-2" d="M151.77,540.8h-.01s-16.76-40.27-16.76-40.27c2.86,.37,5.78,.92,8.73,1.68l8.05,38.6Z"/>
              </g>
              <g>
                <path class="cls-12" d="M183.35,526.01c.75,.8,1.48,1.63,2.21,2.48l-19.81,19.32c-4.83-1.95-9.52-4.31-13.98-7.01l31.58-14.79Z"/>
                <path class="cls-12" d="M192.51,521.73l-.12,.11s-.02-.03-.03-.05l.15-.07Z"/>
                <path class="cls-12" d="M112.58,514.52c1.36,2.28,3.44,5.63,6.4,9.52l-7.31-3.74c.08-.59,.16-1.16,.24-1.72,.07-.47,.15-.94,.22-1.4,.07-.45,.15-.91,.22-1.36,.08-.44,.15-.86,.23-1.3Z"/>
                <path class="cls-12" d="M130.18,488.95c-4.53-.61-8.09-.78-10.29-.85,.23-.61,.48-1.23,.74-1.86,.75-1.89,1.58-3.85,2.48-5.86,.3-.67,.62-1.35,.94-2.04,.29-.63,.6-1.26,.91-1.91l5.22,12.52Z"/>
                <path class="cls-12" d="M135,500.52l16.76,40.26s-.03-.01-.06-.03c-.02,0-.03-.01-.06-.03-16.59-10.05-29.9-24.7-34.61-39.86,5.46-1.02,11.57-1.16,17.96-.33h0Z"/>
              </g>
              <g>
                <path class="cls-7" d="M183.35,526.01l-31.58,14.79-8.05-38.6c13.76,3.52,28.08,11.3,39.63,23.81Z"/>
                <path class="cls-7" d="M192.51,521.73l-.15,.07c-2.74-3.1-5.81-6.17-9.22-9.15-14.26-12.39-29.51-18.51-41.73-21.55l-6.62-31.77h0c.14-.22,.28-.4,.4-.61,0,0,.01,0,.01-.01,.38-.55,.76-1.09,1.13-1.63l56.19,64.65Z"/>
                <path class="cls-10" d="M140.81,545.25l-28.93,11.75-1.18-6.55v-.02l-.02-.09v-.02c-.13-1.85-.23-3.7-.29-5.56-.02-.63-.03-1.25-.05-1.87-.05-2.91-.01-5.7,.08-8.39,.05-1.08,.09-2.14,.16-3.17,.08-1.24,.16-2.45,.26-3.63,.05-.52,.09-1.03,.14-1.54,.05-.54,.1-1.07,.16-1.59,.16-1.46,.33-2.87,.52-4.24l7.31,3.74c4.82,6.35,11.93,14.15,21.83,21.21Z"/>
                <path class="cls-19" d="M151.76,540.79s-.03-.01-.06-.03c-.02,0-.03-.01-.06-.03"/>
              </g>
            </g>
            <g>
              <g>
                <path class="cls-11" d="M160.47,650.03c-.22-.2-.44-.39-.66-.59-.01,0-.02-.01-.03-.03-.45-.39-.9-.78-1.33-1.18-1.01-.9-2-1.82-2.95-2.72-.37-.34-.72-.69-1.07-1.03-.44-.43-.86-.84-1.29-1.26-.64-.63-1.26-1.28-1.89-1.91-.61-.64-1.22-1.28-1.82-1.92-.52-.55-1.02-1.12-1.53-1.67-1.81-1.99-3.5-3.98-5.09-5.96-1.02-1.24-2.01-2.49-2.95-3.77-.95-1.22-1.86-2.46-2.72-3.71-.39-.52-.76-1.03-1.12-1.55,0,0,0-.01-.01-.01v-.02h.02l11.19-26.13,13.24,53.46v.02Z"/>
                <path class="cls-2" d="M158.27,555.11l-.02,.09-7.13,26.73c-5.36-.17-10.78,.09-16.22,.82l-23.01-25.75,46.17-1.87h.21Z"/>
              </g>
              <g>
                <path class="cls-12" d="M175.21,631.05l-14.73,18.98h-.01s0-.02-.01-.02l-13.24-53.46c8.78,13.07,17.1,24.59,28,34.5Z"/>
                <path class="cls-12" d="M194.17,606.61l-13.15,16.96c-8.62-7.69-16.06-16.68-21.88-26.64l11.13,.37h.02c8.52,1.43,16.65,4.67,23.88,9.31Z"/>
                <path class="cls-6" d="M134.89,582.75c-5.68,.75-11.37,2-17,3.78-.56-1.67-1.12-3.45-1.68-5.33-.18-.63-.37-1.28-.55-1.93-.17-.66-.36-1.32-.53-1.99-.2-.74-.38-1.48-.56-2.24-.18-.75-.37-1.52-.55-2.3-.05-.21-.09-.43-.14-.63-.22-.98-.44-1.97-.64-2.98-.01-.12-.03-.22-.07-.33-.17-.92-.36-1.86-.53-2.82-.14-.78-.28-1.59-.41-2.39-.11-.7-.23-1.43-.33-2.15-.15-1.05-.3-2.13-.44-3.21v-.02l.44-1.21,23.01,25.75Z"/>
              </g>
              <g>
                <path class="cls-2" d="M170.27,597.3l-11.13-.37c-.09-.14-.17-.28-.25-.41,3.84-.12,7.65,.15,11.38,.78Z"/>
                <path class="cls-2" d="M200.65,598.27h-.01c-14.14-10.07-31.42-15.74-49.52-16.34l7.13-26.73,.02-.09,.17,.18h.02s42.18,42.98,42.18,42.98Z"/>
                <path class="cls-9" d="M147.22,596.55l-11.19,26.13v.03s-.01-.01-.02-.01c-.47-.68-.92-1.38-1.37-2.07-1.6-2.39-3.05-4.73-4.36-6.97-.26-.46-.53-.91-.79-1.36-.37-.66-.74-1.3-1.09-1.94-.29-.53-.59-1.06-.86-1.59-.05-.08-.09-.16-.14-.24-.52-.97-1.01-1.9-1.46-2.82-.7-1.37-1.33-2.68-1.92-3.93l23.2-5.24Z"/>
              </g>
            </g>
            <g>
              <path class="cls-7" d="M240.59,421.09h0c-2.1,4.22-4.14,8.85-5.96,13.9l-41.15,24.21c.47-4.96,1.32-10.34,2.7-16.03t.01-.02s0-.01,.01-.02c0-.01,0-.02,.01-.03h0s21.04-43.24,21.04-43.24l23.33,21.24Z"/>
              <g>
                <path class="cls-10" d="M257.18,395.63c-3.32,3.94-10.23,12.72-16.59,25.46l-23.33-21.24,39.92-4.22Z"/>
                <path class="cls-10" d="M262.77,404.45c2.08-3.16,4.16-6.29,6.23-9.34l-.31,.49c-.06,.09-.13,.18-.2,.29-.09,.15-.2,.3-.31,.47-.15,.23-.32,.48-.51,.76-.17,.26-.37,.56-.57,.86-.2,.29-.39,.59-.6,.9-.46,.68-.93,1.39-1.41,2.12-.11,.17-.23,.34-.34,.52l-.69,1.03-5.53,8.31-5.12,7.69s-.02-.03-.05-.06c.3-.44,4.22-6.29,6.39-9.52,.14-.22,.28-.41,.4-.61,.13-.21,.25-.39,.37-.56,.33-.51,.56-.84,.62-.93,.05-.05,.08-.1,.1-.15,.05-.07,.1-.16,.17-.26,.24-.36,.62-.92,1.07-1.6,.09-.14,.18-.28,.28-.41Z"/>
                <path class="cls-10" d="M269.53,394.34l-.52,.78h-.01c.17-.26,.36-.52,.53-.78Z"/>
              </g>
              <g>
                <path class="cls-2" d="M258.11,394.55c-.26,.31-.57,.67-.93,1.08l-39.92,4.22,.1-.16h0c.14-.05,.28-.08,.41-.11,.56-.16,1.15-.31,1.74-.46,1.38-.36,2.81-.7,4.29-1.03,3.27-.74,6.76-1.4,10.47-1.95,.77-.12,1.56-.23,2.36-.33,.15-.02,.29-.03,.44-.06,.71-.09,1.41-.17,2.1-.25,.46-.06,.91-.1,1.37-.15,2.37-.25,4.66-.44,6.86-.56,.54-.03,1.08-.06,1.61-.08,.13-.01,.26-.01,.39-.02,.67-.03,1.33-.06,1.99-.07,.4-.01,.8-.02,1.2-.03,.47-.01,.94-.01,1.41-.02,1-.01,1.97-.01,2.91,0,.4,0,.8,0,1.2,.01Z"/>
                <path class="cls-12" d="M204.43,403.89c-4.29,7.23-9.22,17.13-12.9,29.5-3.45,11.61-4.76,21.96-5.2,30.02l-6.89-47.21c1.46-.9,2.92-1.76,4.35-2.58,.32-.18,.63-.37,.95-.54,.57-.32,1.14-.64,1.71-.94,.63-.34,1.25-.68,1.87-1,1.56-.83,3.09-1.6,4.59-2.31,.7-.33,1.38-.66,2.06-.97,.68-.32,1.35-.62,2.01-.91,.66-.3,1.31-.57,1.95-.85,.63-.28,1.26-.54,1.89-.79,1.24-.52,2.45-.99,3.6-1.43Z"/>
                <path class="cls-12" d="M217.26,399.85l-21.04,43.23c.3-1.31,.63-2.64,1.02-3.99,5.17-18.38,13.82-31.61,19.74-39.29l.28,.05Z"/>
              </g>
            </g>
            <g>
              <g>
                <path class="cls-2" d="M236.57,523.71l-44.07-1.99,.76-42.67,43.01,43.91h0c.1,.26,.21,.51,.3,.75Z"/>
                <path class="cls-2" d="M234.63,434.99c-.79,2.2-1.55,4.47-2.25,6.83l-39.11,37.24c-.39-5.2-.55-11.98,.22-19.86l41.15-24.21Z"/>
              </g>
              <g>
                <path class="cls-12" d="M227.46,484.27c.91,14.8,4.38,27.75,8.82,38.7l-43.01-43.91,34-4.96c-.08,3.31-.01,6.69,.2,10.16Z"/>
                <path class="cls-12" d="M266.78,468.35v.02s-23.3,43.34-23.3,43.34c-4.04-12.27-6.44-25.68-6.53-39.02l29.82-4.35h.01Z"/>
                <path class="cls-6" d="M193.26,479.06l-52-21.84c3.5,.21,7.55,.67,11.99,1.59,3.13,.64,12.41,2.76,23.22,8.58,4.61,2.48,10.57,6.21,16.79,11.68Z"/>
              </g>
              <g>
                <path class="cls-6" d="M193.26,479.06l39.11-37.24c-2.87,9.59-4.85,20.41-5.12,32.28l-34,4.96Z"/>
                <path class="cls-6" d="M266.78,468.35h-.01l-29.82,4.35c-.14-15.95,3.01-31.76,10.58-45.3l19.23,40.9h0s.02,.06,.02,.06Z"/>
                <path class="cls-12" d="M193.26,479.06l-.76,42.67-56.19-64.65h0c.34-.51,.69-1,1.05-1.49l3.89,1.63h.01l52,21.84Z"/>
              </g>
            </g>
            <g>
              <g>
                <path class="cls-2" d="M278.28,481.86h0c-.39-5.4-1.1-10.8-2.17-16.13l32.36-9.08,6.65,68.47-36.84-43.25Z"/>
                <path class="cls-6" d="M316.53,407.73l-5.86,35.95-.02,.15-.03-.08-1.2-2.6-.03-.07-4.76-10.31-.03-.07-14.87-32.22c.72,.17,1.47,.36,2.22,.55,.41,.1,.83,.21,1.24,.32,.87,.23,1.77,.47,2.67,.74,.9,.25,1.82,.53,2.74,.8,.57,.17,1.16,.36,1.75,.55,.54,.17,1.08,.34,1.63,.53,.76,.25,1.53,.52,2.3,.78,1.26,.45,2.54,.92,3.83,1.41,1.39,.53,2.79,1.09,4.21,1.69,1.45,.61,2.85,1.23,4.23,1.86Z"/>
              </g>
              <g>
                <path class="cls-12" d="M328.89,441.98l-11.5,69.37h0s-2.28,13.76-2.28,13.76l-6.65-68.47c4.83-4.28,10.93-8.99,18.37-13.46,.69-.41,1.37-.82,2.05-1.21Z"/>
                <path class="cls-2" d="M265.77,436.16h0c-3.33-6.29-7.42-12.2-12.34-17.58,1.7-2.55,3.39-5.13,5.09-7.71,.41-.62,.83-1.25,1.23-1.89,.14-.22,.28-.41,.4-.61,.13-.21,.25-.39,.37-.56,.33-.51,.56-.84,.62-.93,.05-.05,.08-.1,.1-.15,.05-.07,.1-.16,.17-.26,.24-.36,.62-.92,1.07-1.6,.09-.14,.18-.28,.28-.41,2.08-3.16,4.16-6.29,6.23-9.34,.17-.26,.36-.52,.53-.78,.38,.3,.78,.61,1.17,.93-.55-.05-1.12-.1-1.68-.15,7.19,7.65,15.34,17.51,23.13,29.8,7.31,11.54,12.54,22.43,16.31,31.73l-42.7-20.49Z"/>
              </g>
              <g>
                <path class="cls-8" d="M247.52,427.4c9.8,11.59,16,25.9,19.23,40.9l-19.23-40.9Z"/>
                <path class="cls-8" d="M308.47,456.65l-32.36,9.08c-2.04-10.28-5.38-20.32-10.34-29.57l42.7,20.49Z"/>
              </g>
            </g>
            <g>
              <g>
                <path class="cls-2" d="M221.9,620.47s-.01-.01-.02-.03c-1.68-2.61-3.56-5.2-5.67-7.74-4.56-5.5-9.8-10.32-15.54-14.41h-.01s-.01-.01-.01-.01h0s13.57-35.62,13.57-35.62l7.69,57.81Z"/>
                <path class="cls-6" d="M236.77,524.17l-22.56,38.49c-1.97-7.37-7.32-24.14-21.36-40.3h-.01s-.33-.64-.33-.64l44.07,1.99c.07,.15,.13,.31,.2,.46Z"/>
              </g>
              <g>
                <polygon class="cls-6" points="221.9 620.47 214.21 562.67 260.95 561.83 221.9 620.47"/>
                <path class="cls-2" d="M192.84,522.36c-.15-.17-.29-.34-.45-.52l.12-.11,.33,.63Z"/>
                <path class="cls-2" d="M200.5,553.79c-11.43,.92-23.44-1.4-34.74-5.98l19.81-19.32c6,7.04,11.15,15.45,14.93,25.29Z"/>
              </g>
              <g>
                <path class="cls-2" d="M260.95,561.83l-46.74,.84,22.56-38.49c8.28,19.8,19.63,32.76,24.18,37.65Z"/>
                <path class="cls-12" d="M214.21,562.67l-13.57,35.61-42.17-42.97c24.96,11,47.36,8.65,55.74,7.36Z"/>
              </g>
            </g>
            <g>
              <g>
                <path class="cls-3" d="M309.38,578.11l-.15-.06h-.01l-48.27-16.22c2.48-3.39,4.86-7.68,7.02-12.68l41.29,28.88,.11,.08Z"/>
                <path class="cls-4" d="M266.78,468.4c5.73,26.66,2.06,55.43-7.47,74.69l7.47-74.69Z"/>
                <path class="cls-4" d="M271.72,539.09c4.22-13.16,6.98-29.32,6.98-46.1,0-3.69-.14-7.4-.43-11.12l36.84,43.25-43.39,13.97Z"/>
              </g>
              <g>
                <path class="cls-8" d="M315.11,525.12l-5.71,52.78-.02,.21-.11-.08-41.29-28.88c1.35-3.09,2.6-6.47,3.75-10.06l43.39-13.97Z"/>
                <path class="cls-5" d="M266.78,468.35v.05l-7.47,74.69c-6.43-8.59-11.9-19.41-15.83-31.35h0s23.29-43.36,23.29-43.36v-.02Z"/>
              </g>
            </g>
            <g>
              <g>
                <path class="cls-6" d="M222.85,669.38c-.18,4.56-.69,8.66-1.32,12.2-1.56-.38-3.31-.84-5.22-1.38-.95-.26-1.94-.56-2.97-.87-.06-.02-.11-.03-.16-.05-1.17-.34-2.33-.71-3.48-1.1v-.02s12.83-20.56,12.83-20.56c.32,3.46,.48,7.43,.32,11.78Z"/>
                <path class="cls-2" d="M222.44,647.1l-10.75-24.08c5.24,7.12,9.01,15.29,10.75,24.08Z"/>
              </g>
              <g>
                <path class="cls-12" d="M275.3,628.28l-.06,.08-41.1,55.68h-.01c.66-3.84,3.27-20.81-2.02-40.36l43.16-15.39h.03Z"/>
                <path class="cls-7" d="M175.21,631.05c7.01,6.39,15.1,12.11,25.06,17.12l-39.77,1.87h-.03s0-.01,.01-.01l14.73-18.98Z"/>
                <path class="cls-7" d="M222.44,647.1v.02c-15.31-4.73-29.5-12.89-41.42-23.56l13.15-16.96c6.77,4.36,12.74,9.92,17.5,16.38,.01,0,.01,.01,.01,.01,0,.01,.01,.01,.01,.02l10.75,24.08Z"/>
              </g>
              <g>
                <path class="cls-6" d="M275.3,628.28h-.03s-43.16,15.41-43.16,15.41c-2.04-7.55-5.24-15.49-10.2-23.2h0s53.36,7.8,53.36,7.8h.03Z"/>
                <path class="cls-2" d="M222.78,657.19h0s-.25,.41-.25,.41l-12.82,20.56v.02h-.02c-.98-.32-1.95-.67-2.92-1.01-.2-.07-.39-.14-.6-.22-.85-.31-1.69-.62-2.53-.95-.9-.34-1.78-.7-2.67-1.06-.1-.05-.21-.09-.3-.13-.99-.41-1.97-.84-2.94-1.26-.61-.28-1.23-.54-1.85-.83-.79-.37-1.6-.74-2.41-1.14-.47-.22-.95-.45-1.44-.69-.48-.23-.97-.48-1.45-.72-.32-.16-.66-.33-.98-.49-.08-.03-.15-.08-.23-.12-.64-.32-1.3-.67-1.95-1.01-1.22-.63-2.44-1.31-3.64-2.01-.23-.13-.46-.26-.69-.39-.43-.24-.86-.49-1.29-.75-.24-.14-.48-.29-.72-.44-.6-.36-1.18-.71-1.78-1.09-.48-.3-.97-.6-1.44-.91-.26-.16-.54-.33-.82-.52-.28-.17-.55-.36-.83-.54-2-1.3-4.01-2.68-6.04-4.16-.16-.12-.31-.22-.46-.33-.32-.24-.66-.48-.98-.74-.38-.28-.77-.56-1.15-.86-.61-.46-1.22-.93-1.83-1.41-.74-.57-1.47-1.17-2.21-1.77-.74-.61-1.47-1.22-2.21-1.85-.14-.12-.28-.24-.41-.36-.15-.12-.29-.24-.44-.37h.02l61.97,7.11,.3,.03Z"/>
              </g>
            </g>
            <g>
              <g>
                <path class="cls-2" d="M282.02,643.32l-.56,3.41v.09s-.05-.09-.05-.09l-.08-.26c.21-1.06,.44-2.1,.69-3.15Z"/>
                <path class="cls-11" d="M309.21,578.05c-2.46,2.14-4.87,4.4-7.24,6.85-5.06,5.21-9.38,10.65-13.11,16.19l-27.92-39.26,48.27,16.22Z"/>
              </g>
              <g>
                <path class="cls-12" d="M327.4,624.65c-11.75,9.85-25.63,17.15-40.65,20.87h-.05c-1.4,.34-3.77,.92-5.24,1.22l.56-3.41h0c3.07-13.08,8.71-25.42,16.34-36.4l29.04,17.73Z"/>
                <polygon class="cls-8" points="288.9 601.14 288.83 601.16 221.9 620.47 260.95 561.83 288.86 601.09 288.9 601.14"/>
              </g>
              <g>
                <path class="cls-5" d="M327.4,624.65l-29.04-17.73c4.46-6.44,9.6-12.41,15.29-17.77l13.75,35.5Z"/>
                <path class="cls-2" d="M288.83,601.16c-6,8.97-10.38,18.19-13.57,27.12l-53.36-7.81,66.93-19.32Z"/>
              </g>
            </g>
            <g>
              <g>
                <path class="cls-12" d="M281.41,646.73c-.06,.01-.1,.02-.15,.03,.02-.1,.03-.2,.06-.3h.01l.08,.26Z"/>
                <path class="cls-12" d="M281.56,683.4v.64l-.07-.63-2.25-20.04v-3.64c.75-.07,1.49-.16,2.24-.25l.08,23.93Z"/>
              </g>
              <g>
                <path class="cls-2" d="M267.24,684.04h-33.04s-.07,.01-.07,.01h0s.01-.01,.01-.01l41.1-55.68c-9.03,25.36-8.42,48.25-8,55.68Z"/>
                <path class="cls-2" d="M281.56,684.04h-3.91c.53-.07,1.06-.16,1.59-.24v-20.43l2.25,20.04,.07,.63Z"/>
              </g>
              <g>
                <path class="cls-2" d="M318.69,671.47c-.9,.43-1.79,.84-2.69,1.25-.38,.17-.77,.33-1.15,.51-.22,.1-.44,.2-.67,.29-.63,.29-1.26,.55-1.9,.82-.56,.24-1.13,.47-1.7,.7-.25,.09-.49,.2-.75,.3-.24,.09-.49,.2-.75,.29-.03,.02-.07,.03-.1,.05-.77,.31-1.55,.6-2.35,.89-.9,.33-1.79,.66-2.7,.97-.45,.16-.89,.31-1.33,.45-.55,.2-1.1,.38-1.66,.55-.74,.24-1.47,.46-2.22,.69-.13,.03-.26,.08-.39,.12-.48,.15-.97,.29-1.46,.43-.49,.14-.98,.28-1.46,.41-.46,.13-.91,.25-1.35,.38-.47,.13-.94,.25-1.4,.38-1.06,.28-2.09,.54-3.08,.78-1.6,.38-3.09,.71-4.5,1.01-.56,.12-1.1,.22-1.62,.32-.33,.07-.66,.14-.98,.2-.32,.06-.63,.12-.93,.17v.64h-3.91c.53-.07,1.06-.16,1.59-.24v-24.08c.75-.07,1.49-.16,2.24-.25,4.63-.61,9.34-1.74,14.04-3.33l23.07,15.26,.09,.07Z"/>
                <path class="cls-9" d="M267.24,684.04c.03,.45,.06,.84,.08,1.17h0c-.63,.07-1.29,.12-1.94,.15-.66,.05-1.32,.08-2,.12-.98,.05-1.99,.09-3.01,.12-.48,.02-.98,.03-1.47,.03-2.67,.06-5.47,.05-8.38-.06-1.35-.05-2.67-.12-3.97-.21-.46-.02-.91-.06-1.37-.09-.86-.06-1.71-.13-2.54-.21-.45-.03-.91-.08-1.36-.13-.71-.07-1.41-.15-2.1-.23-1.25-.14-2.46-.29-3.64-.46-.47-.06-.94-.13-1.4-.2h33.11Z"/>
              </g>
            </g>
            <path class="cls-7" d="M337.39,419.48h0s-21.05,19.15-21.05,19.15l-.03,.03-5.67,5.16,.02-.15,5.86-35.95s.05,.02,.07,.03c.54,.24,1.07,.49,1.6,.75,.55,.25,1.09,.52,1.63,.78,.79,.39,1.59,.78,2.36,1.18,.77,.39,1.54,.79,2.29,1.2,.75,.4,1.49,.8,2.22,1.21,1.45,.82,2.85,1.63,4.21,2.45,1.36,.82,2.67,1.63,3.92,2.45,.63,.4,1.24,.82,1.85,1.22,.24,.16,.48,.32,.72,.48Z"/>
            <g>
              <g class="cls-14">
                <path class="cls-2" d="M376.74,466.48c-.51,4.83-2.1,9.8-4.56,14.65l4.56-14.65Z"/>
                <path class="cls-2" d="M401.34,545.94h0s-35.74-43.16-35.74-43.16c7.69-7.46,12.65-15.31,15.75-21.45l20.01,64.33v.02l.14,.44-.15-.17Z"/>
                <path class="cls-2" d="M375.12,456.58c-1.9,.4-5.31,1.21-9.62,2.75h-.01l-31.58-20.1c5.14-2.64,10.01-4.71,14.44-6.35,.01,0,.02-.01,.03-.01l4.89-.98c1.47,1.33,2.99,2.75,4.52,4.24,.43,.43,.86,.86,1.3,1.3,.44,.44,.87,.87,1.31,1.33,.44,.45,.87,.91,1.31,1.37,.44,.46,.89,.93,1.32,1.41,.21,.23,.41,.45,.62,.68,.98,1.08,1.92,2.15,2.83,3.21,.55,.64,1.09,1.29,1.62,1.92,.53,.64,1.03,1.28,1.54,1.9,.51,.63,1,1.25,1.47,1.87,.86,1.12,1.68,2.21,2.47,3.29,.11,.16,.23,.32,.34,.48,.41,.56,.8,1.13,1.2,1.68Z"/>
              </g>
              <g>
                <path class="cls-2" d="M365.48,459.33c-9.82,3.49-24.21,10.77-35.48,25.75-6.92,9.21-10.62,18.58-12.61,26.27l11.5-69.37c1.7-.98,3.37-1.89,5.01-2.75l31.58,20.1Z"/>
                <path class="cls-2" d="M376.74,466.48l-52.78,50.22c-.06,.01-.1,.01-.16,.02,5.71-32.81,33.24-50.09,52.94-50.24Z"/>
              </g>
              <path class="cls-6" d="M376.74,466.48l-4.56,14.65c-8.75,17.37-28.39,33.25-48.22,35.57l52.78-50.22Z"/>
            </g>
            <g>
              <g>
                <path class="cls-5" d="M354.18,611.91c.48-.63,.95-1.25,1.43-1.9l-.22,1.32-1.21,.57Z"/>
                <path class="cls-5" d="M363.47,562c-.09,.62-.2,1.24-.31,1.86-4.21,23.76-17.37,45.38-35.76,60.79l36.07-62.65Z"/>
                <path class="cls-2" d="M401.33,546.18v-.05c-9.11-.39-22.26-.05-37.45,3.73l1.59-46.95v-.26s.13,.14,.13,.14l35.74,43.15h0s.15,.18,.15,.18l-.16,.07Z"/>
              </g>
              <g>
                <path class="cls-12" d="M400.2,559.28c-.62,4.69-1.46,9.32-2.52,13.87h0s-.17,.16-.17,.16l-42.13,38.03,.22-1.32c11.5-15.48,19.33-32.73,20.73-48.97l23.86-1.77h.01Z"/>
                <path class="cls-6" d="M351.67,565.51c3.85-1.4,7.77-2.58,11.8-3.51l-11.84,3.53s.03-.01,.05-.02Z"/>
                <path class="cls-6" d="M365.48,502.64v.26s-1.6,46.95-1.6,46.95c-.49,.12-.99,.24-1.49,.37-7.77,2.02-31.12,8.88-52.63,27.37l55.08-74.09,.64-.87Z"/>
              </g>
              <g>
                <path class="cls-9" d="M400.31,558.42c-.01,.07-.02,.14-.02,.22-.02,.21-.05,.41-.08,.63h-.01l-23.86,1.77c.05-.43,.08-.86,.1-1.29,3.38-.76,7.44-1.41,12.05-1.67,4.47-.23,8.46-.03,11.82,.33Z"/>
                <path class="cls-2" d="M363.47,562l-36.07,62.65-13.75-35.5c10.86-10.3,23.76-18.45,37.86-23.58,.01-.01,.02-.01,.03-.01s.03-.01,.05-.01,.02-.01,.03-.01c.01-.01,.03-.01,.05-.02l11.8-3.51Z"/>
              </g>
            </g>
            <g>
              <path class="cls-2" d="M365.03,636.42c-.74,.84-1.48,1.67-2.25,2.48h-.01l-24.21-9.76c5.65-5.32,10.91-11.13,15.61-17.22h.01s1.21-.59,1.21-.59l9.63,25.06v.02Z"/>
              <path class="cls-6" d="M362.78,638.91c-.2,.21-.38,.41-.59,.62-.4,.45-.82,.9-1.24,1.33h-.01l-40.98,3.07c6.5-4.31,12.74-9.28,18.59-14.79l24.21,9.76h.01Z"/>
              <g>
                <path class="cls-2" d="M376.43,621.74c-3.48,5.14-7.29,10.05-11.39,14.68v-.02s-9.65-25.06-9.65-25.06l20.96,10.37,.08,.03Z"/>
                <path class="cls-9" d="M360.95,640.86c-.09,.09-.18,.2-.29,.29-1.55,1.62-3.17,3.22-4.85,4.81-.69,.66-1.39,1.3-2.09,1.93-.71,.66-1.43,1.29-2.14,1.91s-1.41,1.22-2.13,1.82c-.71,.6-1.43,1.18-2.14,1.76-.61,.48-1.22,.97-1.82,1.44-8.27,6.48-17.26,12.07-26.81,16.66l-.09-.07-23.07-15.26c8.24-2.78,16.5-6.97,24.42-12.2h.01l40.99-3.08h.01Z"/>
              </g>
            </g>
            <g>
              <path class="cls-10" d="M397.69,573.15c-2.76,11.9-6.98,23.21-12.45,33.79l-.21,.03-29.64,4.36,42.13-38.03,.17-.15Z"/>
              <path class="cls-6" d="M385.03,606.98l.21-.03c-2.64,5.12-5.59,10.06-8.81,14.8l-.08-.03-20.96-10.37,29.64-4.36Z"/>
            </g>
          </g>
          <path class="cls-19" d="M376.74,466.48c-.51,4.83-2.1,9.8-4.56,14.65-8.75,17.37-28.39,33.25-48.22,35.57-.06,.01-.1,.01-.16,.02,5.71-32.81,33.24-50.09,52.94-50.24Z"/>
          <path class="cls-19" d="M344.83,424.87s-.01,0-.02,.01c-5.39,1.25-12.87,3.63-20.81,8.43-2.87,1.74-5.43,3.54-7.66,5.32l-.03,.03-5.67,5.16-.03-.08s-.07,.06-.1,.09c-.34-.89-.71-1.77-1.09-2.69l-.03-.07-4.76-10.31-.03-.07c-1.81-3.59-3.84-7.3-6.13-11.12-5.46-9.09-11.15-16.62-16.33-22.68,.1,.01,.22,.03,.33,.06,.6,.11,1.2,.23,1.81,.34,.67,.13,1.33,.26,2.02,.41,.31,.07,.62,.14,.94,.21,.52,.1,1.03,.23,1.55,.34,.31,.07,.61,.14,.92,.21h.01c.72,.18,1.47,.37,2.22,.56,.41,.1,.83,.21,1.24,.32,.87,.23,1.77,.47,2.67,.74,.9,.25,1.82,.53,2.74,.8,.57,.17,1.16,.36,1.75,.55,.54,.17,1.08,.34,1.63,.53,.76,.25,1.53,.52,2.3,.78,1.26,.45,2.54,.92,3.83,1.41,1.39,.53,2.79,1.09,4.21,1.69,1.45,.61,2.85,1.23,4.23,1.86,.02,.01,.05,.02,.07,.03,.54,.24,1.07,.49,1.6,.75,.55,.25,1.09,.52,1.63,.78,.79,.39,1.59,.78,2.36,1.18,.77,.39,1.54,.79,2.29,1.2,.75,.4,1.49,.8,2.22,1.21,1.45,.82,2.85,1.63,4.21,2.45,1.36,.82,2.67,1.63,3.92,2.45,.63,.4,1.24,.82,1.85,1.22,.24,.16,.48,.32,.72,.48,.36,.23,.7,.47,1.06,.72,2.32,1.6,4.45,3.17,6.38,4.67Z"/>
          <path class="cls-19" d="M266.76,468.3h0s.02,.06,.02,.06v.05c5.73,26.66,2.06,55.43-7.47,74.69-6.43-8.59-11.9-19.41-15.83-31.35h0c-4.04-12.28-6.44-25.7-6.53-39.03-.14-15.95,3.01-31.76,10.58-45.3,9.8,11.59,16,25.9,19.23,40.9Z"/>
          <path class="cls-19" d="M204.43,403.89c-4.29,7.23-9.22,17.13-12.9,29.5-3.45,11.61-4.76,21.96-5.2,30.02-4.87-3.23-11.77-7.09-20.59-10.03-9.23-3.07-17.42-4.07-23.42-4.35,1.4-1.75,2.95-3.6,4.68-5.53,.61-.69,1.25-1.4,1.91-2.12,.32-.36,.66-.71,1-1.07,.33-.37,.68-.72,1.03-1.09,1.05-1.09,2.14-2.2,3.29-3.32h.01c.36-.36,.71-.7,1.08-1.05,.34-.32,.69-.66,1.03-.98,.56-.53,1.14-1.06,1.72-1.59,.01-.02,.01-.03,.02-.02,.03-.05,.06-.07,.09-.09,.03-.03,.07-.07,.1-.08,.16-.17,.33-.31,.49-.45,.07-.08,.15-.14,.22-.2,.31-.29,.63-.56,.94-.84,.55-.49,1.12-.98,1.69-1.46,.36-.32,.72-.62,1.09-.92,.03-.05,.08-.07,.11-.09,.53-.44,1.05-.87,1.59-1.3,.52-.44,1.05-.85,1.58-1.26,.57-.46,1.17-.92,1.77-1.38,.78-.59,1.59-1.18,2.4-1.78,1.66-1.21,3.31-2.36,4.94-3.45,.74-.48,1.46-.97,2.18-1.43,.71-.46,1.41-.91,2.13-1.35,1.46-.9,2.92-1.76,4.35-2.58,.32-.18,.63-.37,.95-.54,.57-.32,1.14-.64,1.71-.94,.63-.34,1.25-.68,1.87-1,1.56-.83,3.09-1.6,4.59-2.31,.7-.33,1.38-.66,2.06-.97,.68-.32,1.35-.62,2.01-.91,.66-.3,1.31-.57,1.95-.85,.63-.28,1.26-.54,1.89-.79,1.24-.52,2.45-.99,3.6-1.43Z"/>
          <path class="cls-19" d="M151.77,540.8h-.01s-.03-.02-.06-.05c-.02,0-.03-.01-.06-.03-16.59-10.05-29.9-24.7-34.61-39.86,5.46-1.02,11.57-1.16,17.96-.33,2.86,.37,5.78,.92,8.73,1.68,13.76,3.52,28.08,11.3,39.63,23.81,.75,.8,1.48,1.63,2.21,2.48,6,7.04,11.15,15.45,14.93,25.29-11.43,.92-23.44-1.4-34.74-5.98-4.83-1.95-9.52-4.31-13.98-7.01"/>
          <path class="cls-19" d="M159.14,596.93c-.09-.14-.17-.28-.25-.41,3.84-.12,7.65,.15,11.38,.78h.02c8.52,1.43,16.65,4.67,23.88,9.31,6.77,4.36,12.74,9.92,17.5,16.38,.01,0,.01,.01,.01,.01,0,.01,.01,.01,.01,.02,5.24,7.12,9.01,15.29,10.75,24.08v.02c-15.31-4.73-29.5-12.89-41.42-23.56-8.62-7.69-16.06-16.68-21.88-26.64Z"/>
          <path class="cls-19" d="M222.85,669.38c-.18,4.56-.69,8.66-1.32,12.2-1.56-.38-3.31-.84-5.22-1.38-.95-.26-1.94-.56-2.97-.87-.06-.02-.11-.03-.16-.05-1.17-.34-2.33-.71-3.48-1.1h-.01c-.98-.32-1.95-.67-2.92-1.01-.2-.07-.39-.14-.6-.22-.85-.31-1.69-.62-2.53-.95-.9-.34-1.78-.7-2.67-1.06-.1-.05-.21-.09-.3-.13-.99-.41-1.97-.84-2.94-1.26-.61-.28-1.23-.54-1.85-.83-.79-.37-1.6-.74-2.41-1.14-.47-.22-.95-.45-1.44-.69-.48-.23-.97-.48-1.45-.72-.32-.16-.66-.33-.98-.49-.08-.03-.15-.08-.23-.12-.64-.32-1.3-.67-1.95-1.01-1.22-.63-2.44-1.31-3.64-2.01-.23-.13-.46-.26-.69-.39-.43-.24-.86-.49-1.29-.75-.24-.14-.48-.29-.72-.44-.6-.36-1.18-.71-1.78-1.09-.48-.3-.97-.6-1.44-.91-.26-.16-.54-.33-.82-.52-.28-.17-.55-.36-.83-.54-2-1.3-4.01-2.68-6.04-4.16-.16-.12-.31-.22-.46-.33-.32-.24-.66-.48-.98-.74-.38-.28-.77-.56-1.15-.86-.61-.46-1.22-.93-1.83-1.41-.74-.57-1.47-1.17-2.21-1.77-.74-.61-1.47-1.22-2.21-1.85-.14-.12-.28-.24-.41-.36-.15-.12-.29-.24-.44-.37h-.01c-.22-.21-.44-.4-.66-.6-.01,0-.02-.01-.03-.03-.45-.39-.9-.78-1.33-1.18-1.01-.9-2-1.82-2.95-2.72-.37-.34-.72-.69-1.07-1.03-.44-.43-.86-.84-1.29-1.26-.64-.63-1.26-1.28-1.89-1.91-.61-.64-1.22-1.28-1.82-1.92-.52-.55-1.02-1.12-1.53-1.67-1.81-1.99-3.5-3.98-5.09-5.96-1.02-1.26-2.01-2.52-2.95-3.77-.95-1.22-1.86-2.46-2.72-3.71-.39-.52-.76-1.03-1.12-1.55,0,0,0-.01-.01-.01-.47-.68-.92-1.38-1.37-2.07-1.6-2.39-3.05-4.73-4.36-6.97-.26-.46-.53-.91-.79-1.36-.37-.66-.74-1.3-1.09-1.94-.29-.53-.59-1.06-.86-1.59-.05-.08-.09-.16-.14-.24-.52-.97-1.01-1.9-1.46-2.82-.7-1.37-1.33-2.68-1.92-3.93l23.2-5.24c8.78,13.07,17.1,24.59,28,34.5,7.01,6.39,15.1,12.11,25.06,17.12,6.52,3.29,13.84,6.27,22.2,8.94v.03l.3,.03h0s-.25,.41-.25,.41c.32,3.46,.48,7.43,.32,11.78Z"/>
          <polygon class="cls-19" points="281.45 646.9 281.45 646.83 281.46 646.84 281.45 646.9"/>
          <path class="cls-19" d="M363.47,562c-.09,.62-.2,1.24-.31,1.86-4.21,23.76-17.37,45.38-35.76,60.79-11.75,9.85-25.63,17.15-40.65,20.87h-.05c-1.4,.34-3.77,.92-5.24,1.22v.09s-.05-.09-.05-.09c-.06,.01-.1,.02-.15,.03,.02-.1,.03-.2,.06-.3h.01c.21-1.06,.44-2.1,.69-3.15h0c3.07-13.08,8.71-25.42,16.34-36.4,4.46-6.44,9.6-12.41,15.29-17.77,10.86-10.3,23.76-18.45,37.86-23.58,.01-.01,.02-.01,.03-.01s.03-.01,.05-.01,.02-.01,.03-.01c.01-.01,.03-.01,.05-.02,3.85-1.4,7.77-2.58,11.8-3.51Z"/>
          <path class="cls-19" d="M400.31,558.42c-.01,.07-.02,.14-.02,.22-.02,.21-.05,.41-.08,.63-.62,4.69-1.46,9.32-2.52,13.87h0c-2.76,11.91-6.98,23.22-12.45,33.8-2.64,5.12-5.59,10.06-8.81,14.8-3.48,5.14-7.29,10.05-11.39,14.68-.74,.84-1.48,1.67-2.25,2.48-.2,.21-.38,.41-.59,.62-.4,.45-.82,.9-1.24,1.33-.09,.09-.18,.2-.29,.29-1.55,1.62-3.17,3.22-4.85,4.81-.69,.66-1.39,1.3-2.09,1.93-.71,.66-1.43,1.29-2.14,1.91s-1.41,1.22-2.13,1.82c-.71,.6-1.43,1.18-2.14,1.76-.61,.48-1.22,.97-1.82,1.44-8.27,6.48-17.26,12.07-26.81,16.66-.9,.43-1.79,.84-2.69,1.25-.38,.17-.77,.33-1.15,.51-.22,.1-.44,.2-.67,.29-.63,.29-1.26,.55-1.9,.82-.56,.24-1.13,.47-1.7,.7-.25,.09-.49,.2-.75,.3-.24,.09-.49,.2-.75,.29-.03,.02-.07,.03-.1,.05-.77,.31-1.55,.6-2.35,.89-.9,.33-1.79,.66-2.7,.97-.45,.16-.89,.31-1.33,.45-.55,.2-1.1,.38-1.66,.55-.74,.24-1.47,.46-2.22,.69-.13,.03-.26,.08-.39,.12-.48,.15-.97,.29-1.46,.43-.49,.14-.98,.28-1.46,.41-.46,.13-.91,.25-1.35,.38-.47,.13-.94,.25-1.4,.38-1.06,.28-2.09,.54-3.08,.78-1.6,.38-3.09,.71-4.5,1.01-.56,.12-1.1,.22-1.62,.32-.33,.07-.66,.14-.98,.2-.32,.06-.63,.12-.93,.17-.02,0-.05,.01-.07,.01-.8,.15-1.56,.28-2.25,.39v-24.08c.75-.07,1.49-.16,2.24-.25,4.63-.61,9.34-1.74,14.04-3.33,8.24-2.78,16.5-6.97,24.42-12.2h.01s.01,0,.01-.01c6.5-4.31,12.74-9.28,18.59-14.79,5.65-5.32,10.91-11.13,15.61-17.22h.01c.48-.64,.95-1.26,1.43-1.91,11.5-15.48,19.33-32.73,20.73-48.97,.05-.43,.08-.86,.1-1.29,3.38-.76,7.44-1.41,12.05-1.67,4.47-.23,8.46-.03,11.82,.33Z"/>
          <path class="cls-19" d="M401.35,545.65v.02c-.01,.08-.01,.17-.01,.25h0c-.01,.08-.01,.14-.01,.21-9.11-.39-22.26-.05-37.45,3.73-.49,.12-.99,.24-1.49,.37-7.77,2.02-31.12,8.88-52.63,27.37l-.38,.51-.15-.06h-.01c-2.46,2.14-4.87,4.4-7.24,6.85-5.06,5.21-9.38,10.65-13.11,16.19l.03,.05-.07,.02c-6,8.97-10.38,18.19-13.57,27.12h.03l-.06,.08c-9.03,25.36-8.42,48.25-8,55.68,.03,.45,.06,.84,.08,1.17-.64,.05-1.3,.1-1.94,.15-.66,.05-1.32,.08-2,.12-.98,.05-1.99,.09-3.01,.12-.48,.02-.98,.03-1.47,.03-2.67,.06-5.47,.05-8.38-.06-1.35-.05-2.67-.12-3.97-.21-.46-.02-.91-.06-1.37-.09-.86-.06-1.71-.13-2.54-.21-.45-.03-.91-.08-1.36-.13-.71-.07-1.41-.15-2.1-.23-1.25-.14-2.46-.29-3.64-.46-.44-.06-.89-.13-1.33-.2-.02,0-.03,0-.06-.01h-.01c.66-3.84,3.27-20.81-2.02-40.36-2.04-7.55-5.24-15.49-10.2-23.2h0s-.01-.02-.02-.05c-1.68-2.61-3.56-5.2-5.67-7.74-4.56-5.5-9.8-10.32-15.54-14.41h-.01s-.01-.01-.01-.01h0s0-.01-.01-.01c-14.14-10.07-31.42-15.74-49.52-16.34-5.36-.17-10.78,.09-16.22,.82-5.68,.75-11.37,2-17,3.78-.56-1.67-1.12-3.45-1.68-5.33-.18-.63-.37-1.28-.55-1.93-.17-.66-.36-1.32-.53-1.99-.2-.74-.38-1.48-.56-2.24-.18-.75-.37-1.52-.55-2.3-.05-.21-.09-.43-.14-.63-.22-.98-.44-1.97-.64-2.98-.01-.12-.03-.22-.07-.33-.17-.92-.36-1.86-.53-2.82-.14-.78-.28-1.59-.41-2.39-.11-.7-.23-1.43-.33-2.15-.15-1.05-.3-2.13-.44-3.21v-.02c-.14-1.16-.28-2.35-.39-3.54-.13-1.21-.23-2.43-.32-3.66,0-.1-.01-.2-.02-.29-.01-.13-.02-.26-.03-.39v-.02c-.13-1.85-.23-3.7-.29-5.56-.02-.63-.03-1.25-.05-1.87-.05-2.91-.01-5.7,.08-8.39,.05-1.08,.09-2.14,.16-3.17,.08-1.24,.16-2.45,.26-3.63,.05-.52,.09-1.03,.14-1.54,.05-.54,.1-1.07,.16-1.59,.16-1.46,.33-2.87,.52-4.24,.08-.59,.16-1.16,.24-1.72,.07-.47,.15-.94,.22-1.4,.07-.45,.15-.91,.22-1.36,.08-.44,.15-.86,.23-1.3,1.36,2.28,3.44,5.63,6.4,9.52,4.82,6.35,11.93,14.15,21.83,21.21,4.35,3.1,9.23,6.06,14.69,8.69,.84,.4,1.69,.79,2.53,1.17h.23s0,0,0,0l.17,.18h.02s.01,.01,.01,.01c24.96,11,47.36,8.65,55.74,7.36-1.97-7.37-7.32-24.14-21.36-40.3h-.01c-.15-.18-.29-.36-.45-.53-.01-.01-.02-.03-.03-.05-2.74-3.1-5.81-6.17-9.22-9.15-14.26-12.39-29.51-18.51-41.73-21.55-4.14-1.03-7.93-1.7-11.22-2.15-4.53-.61-8.09-.78-10.29-.85,.23-.61,.48-1.23,.74-1.86,.75-1.89,1.58-3.85,2.48-5.86,.3-.67,.62-1.35,.94-2.04,.29-.63,.6-1.26,.91-1.91v-.02c.37-.75,.75-1.48,1.13-2.24,.37-.71,.74-1.43,1.12-2.14,.47-.89,.94-1.76,1.43-2.61,.17-.32,.34-.62,.52-.93,.71-1.28,1.44-2.51,2.16-3.7,.2-.31,.38-.62,.56-.93,.36-.56,.7-1.13,1.05-1.67,.39-.6,.77-1.18,1.15-1.77,.24-.37,.48-.72,.71-1.08h0c.14-.22,.28-.4,.4-.61,0,0,.01,0,.01-.01,.38-.55,.76-1.09,1.13-1.63h0c.34-.51,.69-1,1.05-1.49l3.89,1.63h.01c3.5,.21,7.55,.67,11.99,1.59,3.13,.64,12.41,2.76,23.22,8.58,4.61,2.48,10.57,6.21,16.79,11.68-.39-5.2-.55-11.98,.22-19.86,.47-4.96,1.32-10.34,2.7-16.03t.01-.02s0-.01,.01-.02c0-.01,0-.02,.01-.03h0c.3-1.32,.63-2.66,1.02-4,5.17-18.38,13.82-31.61,19.74-39.29h.01v-.02c.13-.03,.24-.07,.37-.09,.14-.05,.28-.08,.41-.11,.56-.16,1.15-.31,1.74-.46,1.38-.36,2.81-.7,4.29-1.03,3.27-.74,6.76-1.4,10.47-1.95,.77-.12,1.56-.23,2.36-.33,.15-.02,.29-.03,.44-.06,.71-.09,1.41-.17,2.1-.25,.46-.06,.91-.1,1.37-.15,2.37-.25,4.66-.44,6.86-.56,.54-.03,1.08-.06,1.61-.08,.13-.01,.26-.01,.39-.02,.67-.03,1.33-.06,1.99-.07,.4-.01,.8-.02,1.2-.03,.47-.01,.94-.01,1.41-.02,1-.01,1.97-.01,2.91,0,.4,0,.8,0,1.2,.01-.26,.31-.57,.67-.93,1.08-3.32,3.94-10.23,12.72-16.59,25.46h0c-2.1,4.22-4.14,8.85-5.96,13.9-.79,2.2-1.55,4.47-2.25,6.83-2.87,9.59-4.85,20.41-5.12,32.28-.08,3.31-.01,6.69,.2,10.16,.91,14.8,4.38,27.75,8.82,38.7h0c.1,.26,.21,.51,.3,.75,.07,.15,.13,.31,.2,.46,8.28,19.8,19.63,32.76,24.18,37.65,2.48-3.39,4.86-7.68,7.02-12.68,1.35-3.09,2.6-6.47,3.75-10.06,4.22-13.16,6.98-29.32,6.98-46.1,0-3.69-.14-7.4-.43-11.12h0c-.39-5.4-1.1-10.8-2.17-16.13-2.04-10.28-5.38-20.32-10.34-29.57h0c-3.33-6.29-7.42-12.2-12.34-17.58,0-.01-.01-.01-.02-.02-.01-.02-.02-.03-.05-.06,.3-.44,4.22-6.29,6.39-9.52,.14-.22,.28-.41,.4-.61,.13-.21,.25-.39,.37-.56,.33-.51,.56-.84,.62-.93,.05-.05,.08-.1,.1-.15,.05-.07,.1-.16,.17-.26,.24-.36,.62-.92,1.07-1.6,.09-.14,.18-.28,.28-.41,2.08-3.16,4.16-6.29,6.23-9.34h.02c7.19,7.65,15.34,17.51,23.13,29.8,7.31,11.54,12.54,22.43,16.31,31.73,4.83-4.28,10.93-8.99,18.37-13.46,.69-.41,1.37-.82,2.05-1.21,1.7-.98,3.37-1.89,5.01-2.75,5.14-2.64,10.01-4.71,14.44-6.35,.01,0,.02-.01,.03-.01,1.49-.54,2.94-1.03,4.32-1.48,.18,.16,.37,.33,.56,.51,1.47,1.33,2.99,2.75,4.52,4.24,.43,.43,.86,.86,1.3,1.3,.44,.44,.87,.87,1.31,1.33,.44,.45,.87,.91,1.31,1.37,.44,.46,.89,.93,1.32,1.41,.21,.23,.41,.45,.62,.68,.98,1.08,1.92,2.15,2.83,3.21,.55,.64,1.09,1.29,1.62,1.92,.53,.64,1.03,1.28,1.54,1.9,.51,.63,1,1.25,1.47,1.87,.86,1.12,1.68,2.21,2.47,3.29,.11,.16,.23,.32,.34,.48,.41,.56,.8,1.13,1.2,1.68-1.9,.4-5.31,1.21-9.62,2.75h-.01c-9.82,3.49-24.21,10.77-35.48,25.75-6.92,9.21-10.62,18.58-12.61,26.27h0s-2.28,13.76-2.28,13.76c7.22-.47,24.41-2.56,41.47-14.8,3.05-2.18,5.78-4.47,8.25-6.81l.64-.87,.12,.14c7.69-7.46,12.65-15.31,15.75-21.45,1.78-3.49,2.95-6.44,3.69-8.44,.28,.53,.55,1.07,.83,1.62,.49,.98,.99,1.99,1.49,3.04,.36,.77,.72,1.56,1.08,2.35,.06,.13,.12,.25,.18,.38,1.22,2.72,2.45,5.67,3.63,8.83,.52,1.41,1.05,2.87,1.55,4.38,.06,.18,.13,.37,.2,.56v.02h.01c.21,.62,.4,1.24,.6,1.85,.63,1.98,1.23,4.02,1.81,6.14,.46,1.71,.91,3.46,1.32,5.27,.18,.78,.36,1.55,.52,2.32,.14,.66,.28,1.31,.4,1.95,.93,4.67,1.57,9.13,2.01,13.35,.07,.68,.14,1.36,.2,2.04,.07,.64,.11,1.29,.16,1.92,.05,.62,.09,1.23,.13,1.85,.36,5.54,.36,10.55,.2,14.9Z"/>
        </g>
      </g>
    </g>
  </g>
</svg>