<?xml version="1.0" encoding="utf-8"?>
<!-- Generator: Adobe Illustrator 26.0.2, SVG Export Plug-In . SVG Version: 6.00 Build 0)  -->
<svg version="1.1" id="Layer_1" xmlns="http://www.w3.org/2000/svg" xmlns:xlink="http://www.w3.org/1999/xlink" x="0px" y="0px"
	 viewBox="0 0 1000 1000" style="enable-background:new 0 0 1000 1000;" xml:space="preserve">
<style type="text/css">
	.st0{fill:#153E35;}
	.st1{fill:#00B2E3;}
	.st2{fill:#C2D500;}
	.st3{fill:#0033A1;}
	.st4{fill:#FFB600;}
	.st5{fill:#21B592;}
	.st6{fill:#5C0F8B;}
	.st7{fill:#C40D3C;}
</style>
<g>
	<g>
		<path class="st0" d="M278.9,557.4c6.1,0,10.3,4.4,10.3,7.4c0,1.2-0.3,1.8-0.7,3.1c2.2,3.1,2,14.8,0.2,17.3
			c0.9,2.1,5.4,4.3,6.3,2.2c5.5-12,9.2-23.5,12.2-36.5c0.7-3.1,8.5-2.8,8.5-2.8s-1.3,5.3-2.7,12.2c0,0-1.7,8.4-2.4,12.5
			c-2.9,17.2-9.3,33.9-9.4,34.3c0,0,0,0,0,0c-1.7,6.6-2.7,14.4-3.1,22.3c-0.3,6.6-0.3,17.8,0.3,24c1.4,13.4,4.4,31.1,4.4,31.1
			c-5.6,3.2-14.3-5.2-23.8-5.2c-9.5,0-18.3,8.3-23.8,5.2c0,0,3-17.7,4.4-31.1c0.7-6.2,0.7-17.4,0.3-24c-0.4-7.9-1.4-15.7-3.1-22.3
			c0,0,0,0,0,0c-0.1-0.4-6.5-17.1-9.4-34.3c-0.7-4.2-2.4-12.5-2.4-12.5c-1.5-6.9-2.7-12.2-2.7-12.2s7.7-0.3,8.5,2.8
			c3,13,6.7,24.5,12.2,36.5c0.9,2,5.4-0.2,6.3-2.2c-1.8-2.5-1.9-14.3,0.2-17.3c-0.4-1.3-0.7-1.9-0.7-3.1
			C268.7,561.8,272.8,557.4,278.9,557.4z"/>
		<g>
			<path class="st1" d="M247,504.7c0,0,4.2-1.2,5.5-6.2c1-3.7-1.5-4.9-1.5-4.9c-1.7,4-7,2.9-7.5-0.6c-0.5-2.9,2.4-8.4,8.8-5.8
				c6.6,2.7,6.4,9.8,3,13.7C251.5,505.3,247,504.7,247,504.7 M241.3,496.4c0,0-3.6,1.1-6.7-2.7c-2.3-2.7-2.5-5.8-2.1-8.3
				c0.1-0.8-0.9-1.1-1.2-0.4c-2.8,6.4-1.7,14.5,3.2,19c6.9,6.3,16.6,6,22.3-0.6c5.5-6.4,4-14.8-1.2-18.4c-5.3-3.6-11.5-2.3-14.3,2.7
				C238.6,492.8,241.3,496.4,241.3,496.4"/>
			<path class="st1" d="M331.6,523.7c0,0,0.1,4.4,4.6,6.9c3.3,1.9,5.1-0.1,5.1-0.1c-3.4-2.7-1-7.5,2.5-7.1c3,0.3,7.5,4.5,3.3,10
				c-4.3,5.6-11.1,3.6-14-0.7C329.8,527.8,331.6,523.7,331.6,523.7 M341.1,520.3c0,0-0.2-3.7,4.3-5.8c3.2-1.5,6.3-0.9,8.6,0.1
				c0.7,0.3,1.3-0.6,0.7-1.1c-5.5-4.4-13.5-5.4-19.2-1.8c-7.9,5-10,14.5-5.2,21.7c4.8,7,13.3,7.7,18.1,3.6c4.8-4.2,5.2-10.5,1-14.5
				C345.2,518.6,341.1,520.3,341.1,520.3"/>
			<path class="st1" d="M391,486.3c0,0-5-1.7-6.5-8.5c-1.3-6,2.2-13.3,10.5-12.6c8,0.7,8.1,7.9,6,10.7c-2.4,3.3-8.5,1.6-8.1-3.5
				c0,0-3.2,0-4.2,4.3C387.3,482.8,391,486.3,391,486.3 M401.4,480.8c0,0,4.8-2.1,4.6-8.9c-0.1-6.8-5.8-11.4-13.2-10.6
				c-7.4,0.8-13.5,8.6-11.3,18.4c2.3,9.8,12.2,15.5,22.7,12.7c7.9-2.1,13.6-10.4,13.7-18.9c0-0.8-1.1-0.9-1.3-0.2
				c-0.8,3-2.7,6.6-7,8.4C404.5,483.9,401.4,480.8,401.4,480.8"/>
			<path class="st1" d="M156.7,489.5c0,0,4.2-1.1,5.6-6.1c1-3.6-1.3-5-1.3-5c-1.8,4-7,2.7-7.5-0.8c-0.4-3,2.6-8.3,8.9-5.5
				c6.5,2.9,6.1,9.9,2.6,13.8C161.2,490.2,156.7,489.5,156.7,489.5 M151.3,481c0,0-3.6,1-6.6-2.8c-2.2-2.8-2.4-5.9-1.9-8.4
				c0.1-0.8-0.9-1.1-1.2-0.4c-3,6.3-2,14.4,2.8,19.1c6.7,6.5,16.5,6.4,22.3-0.1c5.7-6.3,4.4-14.7-0.8-18.4
				c-5.2-3.7-11.4-2.6-14.3,2.4C148.6,477.4,151.3,481,151.3,481"/>
			<path class="st1" d="M322,394.4c0,0,5.1,0.3,8.5-4.7c2.5-3.7,0.4-6,0.4-6c-3.5,3.7-8.8,0.4-8-3.6c0.6-3.4,6-8.2,11.9-2.8
				c6.2,5.6,3.1,13.2-2.2,16.3C326.7,396.8,322,394.4,322,394.4 M319.1,382.9c0,0-4.4-0.2-6.3-5.6c-1.5-4.3-0.2-8.1,1.5-10.8
				c0.4-0.6-0.4-1.4-1-0.8c-6.2,5.9-8.5,15.7-4.7,22.9c5.1,9.7,15.9,13.1,24.7,8.2c8.7-4.9,10.4-14.7,6-20.7
				c-4.4-6-11.6-7.2-16.7-2.6C317.4,378,319.1,382.9,319.1,382.9"/>
		</g>
		<g>
			<path class="st2" d="M285.6,516.6c0,0-2.6-3.5-7.8-2.9c-3.8,0.4-4.1,3.1-4.1,3.1c4.4,0.2,5.2,5.5,2.1,7.2
				c-2.6,1.5-8.7,0.7-8.5-6.1c0.2-7.1,6.9-9.4,11.8-7.7C284.6,512.2,285.6,516.6,285.6,516.6 M279.8,524.9c0,0,2.3,2.9-0.1,7.2
				c-1.7,3.1-4.5,4.4-7,4.9c-0.8,0.2-0.7,1.3,0.1,1.3c7,0.3,14.1-3.6,16.6-9.8c3.5-8.7-0.3-17.7-8.5-20.6c-8-2.9-15.3,1.5-16.8,7.7
				c-1.4,6.2,1.9,11.6,7.6,12.4C277.5,528.7,279.8,524.9,279.8,524.9"/>
			<path class="st2" d="M254.2,431c0,0-4.1-3.3-3.2-10.2c0.8-6.1,6.7-11.8,14.2-8.2c7.2,3.4,4.9,10.2,1.9,12.1
				c-3.4,2.3-8.5-1.4-6.4-6c0,0-3-1.1-5.4,2.6C251.9,426.4,254.2,431,254.2,431 M265.9,429.4c0,0,5.2-0.4,7.4-6.8
				c2.2-6.4-1.5-12.7-8.8-14.5c-7.3-1.8-15.7,3.5-16.9,13.4c-1.2,10,6.1,18.7,17,19.7c8.1,0.8,16.3-5.1,19.4-13
				c0.3-0.7-0.7-1.2-1.1-0.6c-1.8,2.6-4.8,5.3-9.4,5.5C267.7,433.4,265.9,429.4,265.9,429.4"/>
			<path class="st2" d="M175,448.4c0,0-3,3.2-1.6,8.2c1,3.6,3.7,3.5,3.7,3.5c-0.5-4.3,4.6-6,6.8-3.2c1.9,2.3,2.1,8.4-4.7,9.4
				c-7,1-10.4-5.2-9.5-10.4C170.9,450.1,175,448.4,175,448.4 M188.5,460.2c-0.2-5.8-4.3-7.5-4.3-7.5 M184.2,452.7
				c0,0,2.5-2.8,7.1-1.1c3.3,1.2,5.1,3.8,6,6.1c0.3,0.7,1.4,0.5,1.3-0.3c-0.8-7-5.8-13.3-12.4-14.8c-9.2-2-17.4,3.2-18.9,11.7
				c-1.5,8.4,4,14.8,10.3,15.3c6.4,0.4,11.1-3.8,10.9-9.6"/>
			<path class="st2" d="M368.3,439.5c0,0,3.5-2.8,9.1-1c4.9,1.7,8.7,7.6,4.5,13.3c-4.1,5.5-9.4,2.3-10.5-0.5
				c-1.3-3.2,2.6-6.9,6.1-4.4c0,0,1.4-2.3-1.3-5C372.5,438.4,368.3,439.5,368.3,439.5 M367.7,449.6c0,0-0.5,4.5,4.5,7.4
				c5,2.9,10.9,0.8,13.7-5c2.7-5.8-0.3-13.7-8.4-16.4c-8.2-2.7-16.8,1.9-19.4,10.9c-1.9,6.4,1.3,13.9,6.9,18c0.6,0.4,1.4-0.4,0.9-1
				c-1.6-1.9-3-4.7-2.5-8.2C364,450.4,367.7,449.6,367.7,449.6"/>
		</g>
		<g>
			<path class="st3" d="M219.7,528.9c0,0-3.7,2.6-9.1,0.5c-4.9-1.9-8.3-8.1-3.8-13.5c4.4-5.3,9.5-1.8,10.4,1c1.2,3.3-2.9,6.8-6.3,4
				c0,0-1.5,2.2,1,5C215.5,529.8,219.7,528.9,219.7,528.9 M220.9,518.8c0,0,0.8-4.4-4.1-7.6c-4.8-3.2-10.9-1.4-13.9,4.2
				c-3,5.6-0.4,13.7,7.5,16.8c8.1,3.2,16.8-1.1,20-9.9c2.2-6.3-0.5-13.9-6-18.3c-0.6-0.5-1.4,0.3-0.9,0.9c1.5,2,2.8,4.9,2,8.3
				C224.5,518.2,220.9,518.8,220.9,518.8"/>
			<path class="st3" d="M314.1,434.7c0,0-3.1,3.3-8.9,2.2c-5.1-1-9.7-6.3-6.3-12.6c3.3-6,9-3.6,10.4-1c1.8,3-1.6,7.2-5.5,5.2
				c0,0-1.1,2.5,2,4.8C310,436.4,314.1,434.7,314.1,434.7 M313.3,424.6c0,0-0.1-4.5-5.4-6.7c-5.3-2.2-10.9,0.7-12.8,6.8
				c-1.8,6.1,2.2,13.6,10.6,15.1c8.5,1.6,16.3-4.2,17.7-13.5c1-6.6-3.2-13.6-9.4-16.8c-0.7-0.4-1.3,0.6-0.7,1.1
				c1.9,1.7,3.6,4.2,3.6,7.8C316.8,423.3,313.3,424.6,313.3,424.6"/>
			<path class="st3" d="M197.5,436.3c0,0,4.3-0.5,6.5-5.2c1.6-3.5-0.6-5.1-0.6-5.1c-2.4,3.7-7.4,1.6-7.3-1.9c0-3,3.8-7.8,9.6-4.2
				c6,3.8,4.6,10.7,0.6,14C201.8,437.7,197.5,436.3,197.5,436.3 M193.3,427.2c0,0-3.7,0.5-6.1-3.8c-1.8-3.1-1.5-6.2-0.7-8.6
				c0.2-0.7-0.7-1.2-1.2-0.6c-3.8,5.8-4.1,14,0,19.3c5.7,7.4,15.4,8.7,22.1,3.2c6.6-5.4,6.5-13.9,1.9-18.4
				c-4.6-4.4-10.9-4.2-14.5,0.3C191.2,423.2,193.3,427.2,193.3,427.2"/>
			<path class="st3" d="M307.9,505.9c0,0-4.4-1-6.5-6.4c-1.8-4.9,0.4-11.6,7.5-11.9c6.8-0.3,7.7,5.8,6.3,8.4c-1.7,3.1-7,2.4-7.2-2
				c0,0-2.7,0.4-3.1,4.1C304.4,503.4,307.9,505.9,307.9,505.9 M316.1,500c0,0,3.8-2.4,2.9-8.1c-0.9-5.7-6.2-9-12.5-7.5
				c-6.2,1.6-10.5,8.9-7.5,16.9c3.1,8.1,12.1,11.8,20.7,8.2c6.2-2.6,10-9.7,9.6-16.7c0-0.8-1.2-0.8-1.3-0.1
				c-0.5,2.5-1.8,5.3-4.8,7.1C319.1,502.3,316.1,500,316.1,500"/>
			<path class="st3" d="M343.1,342.4c0,0,3.4,3,2.6,8.8c-0.7,5.2-5.9,9.9-12.3,6.8c-6.1-3.1-4-8.8-1.4-10.4c2.9-1.9,7.3,1.3,5.4,5.2
				c0,0,2.5,1,4.7-2.2C344.9,346.4,343.1,342.4,343.1,342.4 M333,343.6c0,0-4.5,0.3-6.5,5.7c-2,5.4,1.1,10.9,7.3,12.6
				c6.2,1.6,13.5-2.8,14.7-11.2c1.2-8.6-4.9-16.1-14.2-17.2c-6.7-0.7-13.4,3.7-16.4,10c-0.3,0.7,0.6,1.3,1.1,0.7
				c1.6-2,4.1-3.8,7.7-3.9C331.5,340.2,333,343.6,333,343.6"/>
			<path class="st3" d="M245.4,360.8c0,0-4.4,0.3-6.7,4.9c-1.7,3.4,0.3,5.1,0.3,5.1c2.6-3.6,7.4-1.3,7.2,2.2c-0.2,3-4.2,7.6-9.8,3.7
				c-5.8-4.1-4.1-10.9,0.1-14C241.2,359.2,245.4,360.8,245.4,360.8 M249.2,370.2c0,0,3.7-0.3,5.9,4.1c1.6,3.2,1.2,6.2,0.2,8.6
				c-0.3,0.7,0.7,1.3,1.1,0.6c4.1-5.6,4.8-13.7,1-19.2c-5.4-7.7-14.9-9.5-21.9-4.3c-6.8,5.1-7.2,13.6-2.8,18.2
				c4.4,4.6,10.7,4.8,14.5,0.4C251.1,374.2,249.2,370.2,249.2,370.2"/>
		</g>
		<g>
			<path class="st4" d="M283.2,368.8c0,0-4,2.2-9.1-0.7c-4.6-2.5-7.2-9-2.1-13.9c5-4.7,9.7-0.6,10.2,2.3c0.7,3.4-3.8,6.4-6.8,3.2
				c0,0-1.8,2,0.4,5.1C278.8,369.2,283.2,368.8,283.2,368.8 M285.5,359c0,0,1.3-4.3-3.1-8.1c-4.4-3.8-10.6-2.8-14.3,2.5
				c-3.6,5.2-2.1,13.6,5.4,17.7c7.6,4.1,16.8,1.1,21.1-7.3c3-6,1.2-13.9-3.7-18.9c-0.5-0.5-1.4,0.1-1,0.8c1.3,2.2,2.1,5.2,1,8.5
				C289.3,358.8,285.5,359,285.5,359"/>
			<path class="st4" d="M217.2,408.9c0,0-5.1-1.2-7.4-7.7c-2-5.8,0.7-13.5,9-13.7c8-0.2,8.9,6.9,7.2,10c-2,3.6-8.3,2.6-8.4-2.5
				c0,0-3.2,0.4-3.7,4.8C213.2,405.8,217.2,408.9,217.2,408.9 M227,402.2c0,0,4.5-2.7,3.6-9.4c-0.9-6.7-7.1-10.6-14.4-9
				c-7.3,1.7-12.4,10.1-9.1,19.6c3.4,9.5,13.9,14,24,10c7.6-3,12.3-11.9,11.5-20.4c-0.1-0.8-1.2-0.8-1.3,0c-0.5,3.1-1.9,6.9-5.9,9.1
				C230.4,404.9,227,402.2,227,402.2"/>
			<path class="st4" d="M357.4,426.5c0,0-0.3,4.5-5.4,7.3c-4.6,2.5-11.5,1.3-12.8-5.7c-1.3-6.7,4.6-8.5,7.4-7.4
				c3.3,1.2,3.4,6.6-0.9,7.5c0,0,0.8,2.6,4.5,2.4C355.4,430.4,357.4,426.5,357.4,426.5 M350.4,419.2c0,0-2.9-3.4-8.5-1.7
				c-5.5,1.7-8,7.5-5.6,13.4c2.5,5.9,10.3,9.1,17.8,4.9c7.6-4.2,9.9-13.7,5.1-21.7c-3.4-5.8-11.1-8.5-17.9-7
				c-0.8,0.2-0.6,1.3,0.1,1.3c2.5,0.1,5.5,1,7.7,3.8C352.2,416,350.4,419.2,350.4,419.2"/>
			<path class="st4" d="M345.6,480.7c0,0-2.7,4.3,0.1,9.7c2,3.9,5.1,3.2,5.1,3.2c-1.6-4.8,3.8-7.9,7-5.3c2.7,2.2,4.4,9.2-3.2,11.9
				c-7.8,2.8-13.1-3.5-13.3-9.6C341.2,483.6,345.6,480.7,345.6,480.7 M357.1,483.5c0,0,2.2-3.8,7.9-2.9c4.5,0.7,7.3,3.7,8.8,6.4
				c0.4,0.7,1.4,0.3,1.2-0.5c-2.3-8.2-9.8-14.9-18-15c-10.9-0.1-19.1,7.8-18.9,17.9c0.2,10,8,16.1,15.4,15.1
				c7.4-1,11.8-6.9,10.2-13.5C362.2,484.4,357.1,483.5,357.1,483.5"/>
			<path class="st4" d="M230.8,567.2c0,0,2.5-2.2,1.7-6.2c-0.6-2.9-2.6-2.9-2.6-2.9c0.1,3.3-3.9,4.3-5.4,2c-1.3-1.9-1.1-6.6,4.2-6.9
				c5.4-0.3,7.6,4.6,6.6,8.5C234.1,566.2,230.8,567.2,230.8,567.2 M224.1,563.3c0,0-2.1,1.9-5.5,0.4c-2.1-1-3.2-2.6-3.9-4.2
				c-0.3-0.7-1.3-0.4-1.3,0.3c0.6,5,3.9,9.6,8.5,11c6.9,2.1,13.5-1.4,15.2-7.8c1.7-6.3-2.1-11.6-6.9-12.3c-4.9-0.8-8.7,2.1-9,6.6
				C221,561.8,224.1,563.3,224.1,563.3"/>
			<path class="st4" d="M211,465.1c0,0,2.2,2.5,6.2,1.7c2.9-0.6,2.9-2.7,2.9-2.7c-3.3,0.2-4.3-3.8-2.1-5.4c1.9-1.3,6.6-1.2,6.9,4.1
				c0.4,5.4-4.5,7.7-8.4,6.7C212.1,468.4,211,465.1,211,465.1 M214.8,458.4c0,0-2-2.1-0.4-5.5c0.9-2.1,2.5-3.2,4.1-3.9
				c0.7-0.3,0.4-1.3-0.4-1.2c-5,0.6-9.5,4-10.9,8.6c-2,6.9,1.5,13.5,8,15.1c6.3,1.6,11.6-2.3,12.3-7.1c0.7-4.9-2.2-8.7-6.7-8.9
				C216.4,455.3,214.8,458.4,214.8,458.4"/>
		</g>
		<g>
			<path class="st5" d="M236.6,437.2c0,0,1.5-3-0.6-6.4c-1.6-2.5-3.5-1.8-3.5-1.8c1.3,3.1-2,5.4-4.3,3.9c-1.9-1.3-3.4-5.7,1.4-7.9
				c5-2.3,8.8,1.5,9.3,5.5C239.4,435,236.6,437.2,236.6,437.2 M229,436c0,0-1.3,2.6-5,2.4c-2.3-0.1-3.9-1.2-5.1-2.4
				c-0.5-0.5-1.4,0.1-1,0.8c2.4,4.4,7.1,7.5,11.9,7.1c7.1-0.6,12-6.2,11.3-12.8c-0.8-6.5-6.3-10-11-8.9c-4.8,1.1-7.3,5.2-5.9,9.4
				C225.5,435.7,229,436,229,436"/>
			<path class="st5" d="M325.6,567.2c0,0-3.3-1-4.5-5.4c-1.1-3.9,1.1-8.8,6.6-8.5c5.3,0.3,5.5,5,4.2,6.9c-1.5,2.2-5.5,1.3-5.4-2
				c0,0-2.1,0.1-2.6,2.9C323.1,565,325.6,567.2,325.6,567.2 M332.3,563.3c0,0,3.1-1.6,2.8-6c-0.2-4.4-4.1-7.3-9-6.6
				c-4.8,0.7-8.6,6-6.9,12.3c1.8,6.4,8.4,9.9,15.2,7.8c4.6-1.4,7.9-6,8.5-11c0.1-0.8-1-1-1.3-0.3c-0.6,1.6-1.8,3.2-3.9,4.2
				C334.4,565.3,332.3,563.3,332.3,563.3"/>
			<path class="st5" d="M279.5,496.9c0,0-3.4,0.9-6.7-2.2c-3-2.8-3.7-8.1,1.1-10.7c4.6-2.5,7.3,1.3,7.2,3.6c-0.1,2.7-4,4-5.7,1.1
				c0,0-1.7,1.1-0.7,3.9C276.2,496.3,279.5,496.9,279.5,496.9 M283.2,490c0,0,1.8-2.9-0.7-6.6c-2.5-3.7-7.3-4.1-11.1-0.9
				c-3.7,3.2-4.2,9.7,0.6,14.2c4.9,4.5,12.3,4,17-1.4c3.2-3.6,3.6-9.3,1.4-13.8c-0.3-0.7-1.4-0.4-1.2,0.4c0.3,1.7,0.1,3.7-1.1,5.5
				C286,490.6,283.2,490,283.2,490"/>
			<path class="st5" d="M414.1,441.2c0,0,1.6,4.2-1.9,8.9c-3.1,4.2-9.9,6-14,0.2c-4-5.6,0.7-9.6,3.7-9.8c3.5-0.3,5.8,4.6,2.3,7.2
				c0,0,1.8,2.1,5.1,0.3C413.9,445.6,414.1,441.2,414.1,441.2 M404.8,437.6c0,0-4.1-1.9-8.4,2c-4.3,3.8-4.2,10.1,0.5,14.5
				c4.7,4.3,13.2,3.9,18.2-2.9c5.1-7,3.3-16.5-4.4-21.9c-5.5-3.8-13.6-3.1-19.2,1.1c-0.6,0.5-0.1,1.4,0.7,1.1c2.4-1,5.4-1.4,8.6,0.2
				C405,433.8,404.8,437.6,404.8,437.6"/>
			<path class="st5" d="M291.8,387.2c0,0,4.6,2.6,4.8,9.5c0.2,6.1-4.6,12.7-12.6,10.4c-7.7-2.2-6.5-9.3-3.9-11.6
				c3-2.8,8.7-0.1,7.3,4.9c0,0,3.1,0.6,4.9-3.5C294.8,391.3,291.8,387.2,291.8,387.2 M280.5,390.7c0,0-5.1,1.2-6.2,8
				c-1.1,6.7,3.6,12.2,11.1,12.8c7.5,0.5,14.9-6,14.4-16c-0.4-10.1-9.1-17.5-20-16.7c-8.1,0.6-15.2,7.7-17,16.1
				c-0.2,0.7,0.9,1.1,1.2,0.4c1.4-2.8,3.9-6,8.4-7C278.1,387.1,280.5,390.7,280.5,390.7"/>
			<path class="st5" d="M218.4,336.3c0,0-3.4,0.2-5.2,3.8c-1.3,2.6,0.3,3.9,0.3,3.9c2-2.7,5.7-1,5.5,1.7c-0.1,2.3-3.2,5.9-7.5,2.8
				c-4.5-3.1-3.2-8.3,0-10.8C215.2,335,218.4,336.3,218.4,336.3 M221.3,343.4c0,0,2.9-0.2,4.6,3.1c1,2,1,4,0.5,5.6
				c-0.2,0.7,0.8,1.2,1.2,0.5c2.6-4.3,2.8-9.9,0-13.9c-4.1-5.9-11.5-7.2-16.8-3.2c-5.2,4-5.5,10.5-2.1,14c3.4,3.6,8.2,3.7,11.1,0.3
				C222.8,346.6,221.3,343.4,221.3,343.4"/>
			<path class="st5" d="M209,481c0,0,4.5,2.7,4.6,9.6c0.1,6.1-4.9,12.6-12.9,10.2c-7.7-2.3-6.3-9.4-3.7-11.7c3.1-2.7,8.7,0.1,7.2,5
				c0,0,3.1,0.7,5-3.4C211.9,485.2,209,481,209,481 M197.6,484.3c0,0-5.1,1.1-6.4,7.8c-1.3,6.7,3.4,12.3,10.8,13
				c7.5,0.7,15-5.7,14.8-15.7c-0.2-10.1-8.8-17.7-19.7-17.1c-8.2,0.4-15.4,7.4-17.3,15.7c-0.2,0.7,0.9,1.1,1.2,0.4
				c1.4-2.8,4-5.9,8.5-6.8C195.2,480.7,197.6,484.3,197.6,484.3"/>
			<path class="st5" d="M156.3,389c0,0-3.8,4.8-1,11.7c2,4.9,5.7,4.4,5.7,4.4c-1.4-6,5.6-9,9-5.5c3,3,4.2,11.6-5.2,13.9
				c-9.8,2.3-15.4-5.9-14.8-13.2C150.6,391.9,156.3,389,156.3,389 M169.7,393.8c0,0,3.2-4.3,9.8-2.5c5.9,1.5,8.8,6.1,10.2,9.8
				c0.3,0.7,1.4,0.4,1.3-0.3c-1.3-10.6-9.7-20.1-19.9-21.3c-13.1-1.5-23.9,7-25,19.1c-1,12,7.6,20.3,16.6,20.1
				c9-0.3,15.1-6.8,14-14.9C175.8,395.6,169.7,393.8,169.7,393.8"/>
		</g>
		<g>
			<path class="st6" d="M369.6,550.7c0,0-1.9,4.1-7.8,4.8c-5.2,0.7-11.2-3.1-9.8-10c1.3-6.7,7.4-6.2,9.6-4.2
				c2.6,2.3,0.7,7.4-3.6,6.6c0,0-0.3,2.7,3.3,3.9C366.2,553.5,369.6,550.7,369.6,550.7 M365.7,541.3c0,0-1.4-4.3-7.2-4.7
				c-5.8-0.5-10.2,4-10.1,10.4c0.1,6.4,6.3,12.2,14.7,11.1c8.6-1.1,14.2-9,12.8-18.3c-1.1-6.6-7.2-12-14.1-13.2
				c-0.8-0.1-1.1,0.9-0.4,1.2c2.3,1,4.8,2.9,5.8,6.3C368.6,539,365.7,541.3,365.7,541.3"/>
			<path class="st6" d="M395,417.3c0,0-3.3,3-9,1.5c-5-1.3-9.2-7-5.3-13c3.7-5.7,9.2-2.9,10.5-0.2c1.5,3.1-2.1,7.1-5.8,4.7
				c0,0-1.3,2.4,1.6,4.9C390.8,418.7,395,417.3,395,417.3 M394.9,407.2c0,0,0.3-4.5-4.9-7.1c-5.2-2.6-11-0.1-13.3,5.8
				c-2.3,6,1.2,13.7,9.4,15.8c8.4,2.2,16.6-3,18.7-12.2c1.5-6.5-2.2-13.8-8.1-17.5c-0.7-0.4-1.3,0.5-0.8,1c1.8,1.8,3.3,4.5,3,8.1
				C398.5,406.1,394.9,407.2,394.9,407.2"/>
			<path class="st6" d="M247.6,453.1c0,0-4.1,1.6-4.9,6.8c-0.6,3.7,1.9,4.8,1.9,4.8c1.3-4.2,6.7-3.5,7.5-0.1
				c0.8,2.9-1.6,8.6-8.2,6.6c-6.8-2.1-7.3-9.1-4.3-13.4C243.1,452.9,247.6,453.1,247.6,453.1 M254.1,460.8c0,0,3.4-1.5,6.9,2
				c2.5,2.5,3.1,5.5,2.9,8.1c0,0.8,1,1,1.3,0.3c2.2-6.7,0.3-14.5-5.1-18.6c-7.5-5.6-17.1-4.3-22.1,2.8c-4.9,7-2.6,15.1,3,18.2
				c5.6,3,11.7,1.2,13.9-4.1C257.2,464.1,254.1,460.8,254.1,460.8"/>
			<path class="st6" d="M138.5,438.2c0,0-1.2,4.2,2.5,7.9c2.6,2.7,5,1.3,5,1.3c-2.6-3.6,1.2-7.5,4.4-6.1c2.8,1.1,5.9,6.4,0.4,10.5
				c-5.7,4.2-11.6,0.4-13.3-4.6C135.7,441.7,138.5,438.2,138.5,438.2 M148.6,437.7c0,0,0.9-3.6,5.7-4.3c3.5-0.5,6.3,0.9,8.2,2.5
				c0.6,0.5,1.4-0.2,1-0.9c-4-5.7-11.5-8.9-17.9-7.1c-9,2.6-13.7,11.1-11,19.4c2.6,8.1,10.6,11.1,16.4,8.5c5.8-2.7,8-8.6,5-13.6
				C153,437.1,148.6,437.7,148.6,437.7"/>
			<path class="st6" d="M297.8,318.6c0,0-4.4-0.2-7.2,4.1c-2.1,3.2-0.2,5.1-0.2,5.1c2.9-3.2,7.5-0.4,6.9,3c-0.5,2.9-5,7.1-10.2,2.6
				c-5.3-4.7-2.8-11.3,1.7-13.9C293.8,316.6,297.8,318.6,297.8,318.6 M300.4,328.4c0,0,3.7,0.1,5.4,4.7c1.3,3.3,0.5,6.3-0.7,8.6
				c-0.4,0.7,0.5,1.3,1,0.8c4.7-5.1,6.3-13.1,3.1-19c-4.5-8.2-13.8-11.1-21.3-6.7c-7.3,4.3-8.7,12.7-4.9,17.8
				c3.9,5.1,10.1,6,14.4,2.1C301.9,332.6,300.4,328.4,300.4,328.4"/>
			<path class="st6" d="M338,464.7c0,0,1.5-4.9-2.7-9.3c-3-3.3-5.8-1.7-5.8-1.7c2.9,4.2-1.6,8.7-5.3,7c-3.2-1.4-6.7-7.7-0.1-12.3
				c6.8-4.8,13.6-0.1,15.4,5.7C341.5,460.7,338,464.7,338,464.7 M326.2,465c0,0-1.1,4.2-6.8,4.9c-4.6,0.5-8-1.6-10.2-3.8
				c-0.5-0.5-1.4,0.1-1,0.8c4.4,7.3,13.4,11.7,21.3,9.7c10.6-2.8,16.4-12.6,13.5-22.3c-2.9-9.6-12-13.4-18.9-10.4
				c-6.9,3-9.6,9.8-6.3,15.7C321,465.5,326.2,465,326.2,465"/>
			<path class="st6" d="M237,538.4c0,0-2.7-4.5,0.4-10.7c2.8-5.4,10.3-8.8,16.1-2.9c5.6,5.7,1.1,11.3-2.3,12.1c-4,1-7.6-4.2-4-7.8
				c0,0-2.4-2-6,0.6C236.4,533.4,237,538.4,237,538.4L237,538.4z M248.6,540.9c0,0,5,1.4,9.3-3.9c4.3-5.3,2.8-12.5-3.4-16.6
				c-6.2-4.1-15.9-2-20.4,6.9c-4.6,9-0.6,19.7,9.3,24.3c7.4,3.5,17.1,0.7,22.7-5.7c0.5-0.6-0.2-1.4-0.9-1c-2.6,1.8-6.3,3.3-10.7,2
				C249,545.3,248.6,540.9,248.6,540.9L248.6,540.9z"/>
			<path class="st6" d="M166.3,503.5c0,0-4.4,2.6-4.3,8.7c0,4.4,3.1,5.1,3.1,5.1c0.7-5.1,7-5.4,8.6-1.6c1.4,3.2-0.2,10.2-8.1,9.2
				c-8.3-1-10.1-9-7.6-14.6C161.1,504.1,166.3,503.5,166.3,503.5 M175.4,511.1c0,0,3.7-2.4,8.3,0.9c3.8,2.7,4.8,6.6,5,9.7
				c0,0.8,1.1,0.9,1.3,0.1c1.7-8.4-2.1-17.7-9.3-21.5c-9.7-5-20.6-1.6-24.9,7.5c-4.3,9-0.1,18,7,20.4c7.1,2.4,13.6-0.8,15.2-7.4
				C179.5,514.2,175.4,511.1,175.4,511.1"/>
		</g>
		<g>
			<path class="st7" d="M253.3,319.8c0,0,4.7-2.3,10.6,1.3c5.2,3.3,7.9,11,1.5,16.3c-6.1,5.2-11.3,0.2-11.8-3.3
				c-0.6-4.1,4.8-7.2,8.1-3.3c0,0,2.2-2.3-0.1-6C258.4,319.7,253.3,319.8,253.3,319.8 M249.9,331.2c0,0-1.8,4.9,3.1,9.6
				c4.9,4.7,12.2,3.9,16.8-2c4.6-5.9,3.4-15.7-5.1-20.9c-8.6-5.3-19.6-2.3-25,7.2c-4.1,7.1-2.2,17,3.8,23.1c0.5,0.5,1.4-0.1,1-0.8
				c-1.6-2.7-2.8-6.6-1.1-10.8C245.5,331.2,249.9,331.2,249.9,331.2"/>
			<path class="st7" d="M185,369.6c0,0-4-3.5-2.9-10.3c1-6,7.1-11.5,14.5-7.7c7.1,3.7,4.5,10.4,1.5,12.2c-3.5,2.2-8.5-1.7-6.2-6.2
				c0,0-3-1.2-5.5,2.4C182.9,365,185,369.6,185,369.6 M196.8,368.4c0,0,5.2-0.2,7.7-6.6c2.4-6.3-1.1-12.7-8.3-14.8
				c-7.2-2-15.8,3-17.3,12.8c-1.6,10,5.5,18.9,16.3,20.3c8.1,1,16.5-4.5,19.8-12.4c0.3-0.7-0.7-1.3-1.1-0.7c-1.9,2.5-5,5.1-9.6,5.2
				C198.5,372.4,196.8,368.4,196.8,368.4"/>
			<path class="st7" d="M395.2,509.2c0,0,4.3,3,4,9.9c-0.3,6.1-5.7,12.3-13.5,9.3c-7.5-2.8-5.7-9.8-2.9-11.9
				c3.2-2.5,8.6,0.7,6.9,5.5c0,0,3.1,0.9,5.2-3C397.8,513.5,395.2,509.2,395.2,509.2 M383.6,511.7c0,0-5.1,0.8-6.9,7.4
				c-1.7,6.6,2.6,12.5,9.9,13.7c7.4,1.2,15.3-4.7,15.8-14.7c0.4-10.1-7.6-18.2-18.5-18.3c-8.2-0.1-15.9,6.4-18.3,14.6
				c-0.2,0.7,0.8,1.2,1.2,0.5c1.6-2.7,4.4-5.6,8.9-6.2C381.5,507.9,383.6,511.7,383.6,511.7"/>
			<path class="st7" d="M281.7,449.1c0,0,2.2-3.9,8-4.3c5.2-0.3,11,3.8,9.2,10.6c-1.7,6.6-7.8,5.7-9.9,3.5c-2.5-2.5-0.2-7.4,4-6.3
				c0,0,0.4-2.7-3.1-4.1C285.2,446.4,281.7,449.1,281.7,449.1 M284.9,458.6c0,0,1.2,4.3,6.9,5.2c5.7,0.9,10.4-3.3,10.8-9.7
				c0.3-6.4-5.5-12.6-14-12.1c-8.6,0.6-14.8,8.1-13.9,17.4c0.6,6.7,6.4,12.4,13.2,14c0.7,0.2,1.1-0.9,0.4-1.2
				c-2.2-1.2-4.6-3.2-5.4-6.7C281.9,460.8,284.9,458.6,284.9,458.6"/>
			<path class="st7" d="M188.5,552.1c0,0,3.3,2.9,8.2,1.3c3.6-1.2,3.4-3.9,3.4-3.9c-4.3,0.7-6.2-4.3-3.5-6.6c2.2-2,8.4-2.4,9.6,4.3
				c1.2,7-4.8,10.6-10,9.9C190.4,556.2,188.5,552.1,188.5,552.1 M192.5,542.8c0,0-2.8-2.4-1.3-7.1c1.1-3.4,3.6-5.2,5.9-6.2
				c0.7-0.3,0.4-1.4-0.3-1.3c-6.9,1.1-13.1,6.3-14.3,12.9c-1.6,9.2,3.9,17.2,12.5,18.5c8.4,1.2,14.7-4.5,14.9-10.9
				c0.2-6.4-4.2-11-10-10.6C194,538.6,192.5,542.8,192.5,542.8"/>
			<path class="st7" d="M319.6,536.9c0,0-0.4-5.1-5.9-7.7c-4-1.9-6,0.5-6,0.5c4.2,2.9,1.7,8.6-2.4,8.5c-3.5-0.1-9-4.7-4.6-11.4
				c4.6-6.9,12.6-5,16.4-0.3C321.4,531.9,319.6,536.9,319.6,536.9 M308.8,541.5c0,0,0.5,4.4-4.6,7c-4.1,2.2-8,1.4-10.9,0.1
				c-0.7-0.3-1.3,0.6-0.7,1.1c6.7,5.2,16.8,6.1,23.4,1.2c8.8-6.5,10.6-17.7,4.4-25.7c-6.2-7.9-16-8.1-21.4-2.8
				c-5.3,5.3-5.3,12.6-0.1,16.9C304.1,543.9,308.8,541.5,308.8,541.5"/>
			<path class="st7" d="M361.2,368c0,0,4.7-4.3,12.8-2c7.2,2,13,10.2,7.4,18.6c-5.4,8.1-13.2,4-15,0.1c-2.1-4.5,3.2-10,8.4-6.6
				c0,0,1.8-3.4-2.2-7C367,366.1,361.2,368,361.2,368 M361,382.4c0,0-0.5,6.4,6.9,10.2c7.4,3.8,15.6,0.4,19.1-8.1
				c3.4-8.5-1.4-19.5-13.2-22.8c-11.9-3.3-23.7,4-26.9,16.9c-2.5,10,3.6,21.4,13.2,26.3c0.7,0.3,1.3-0.6,0.7-1.1
				c-3-2.6-6.3-6.9-5.7-13.1C355.8,383.9,361,382.4,361,382.4"/>
		</g>
	</g>
	<g>
		<g>
			<g>
				<path class="st0" d="M706.6,585.5c-4.2,0-7.1,2.9-8.4,8c-0.6,2.5-0.6,3.3-1.3,4.9c-0.5,1.1-1.6,1.8-3,1.8H693
					c-2.5,0-2.6-1.1-2.9-2.7c-0.8-4.8-2.5-7.9-5.1-9.7c-2.5-1.7-5.2-2.3-7.9-2.3c-1.6,0-3.2,0.2-4.7,0.5l0.4,4.1
					c1.3-0.3,2.6-0.5,4.1-0.5c2,0,4,0.4,5.7,1.5c1.8,1.1,2.7,3.2,3.4,6.9c0.1,0.8,0.3,1.4,0.5,2h-15.3c-3.5,0-5-1.4-5.2-4.5
					c0-0.2,0-0.5,0-0.8c0-5.4-3.9-9.4-8.9-9.4c-4.2,0-7.1,2.9-8.4,8c-0.6,2.5-0.6,3.3-1.3,4.9c-0.5,1.1-1.6,1.8-3,1.8h-3.4v-3.9
					c0-7.3-5-10.8-12.9-10.8h-2.4v4.2h2.4c6.1,0,8.8,1.7,8.8,6.7v3.8h-13.1v4.1h20.7c2.6,0,4.7-1,6-2.9c2.1,2,4.5,2.9,6.9,2.9
					c2.7,0,5.2-1.2,6.9-3.4c1.2,2.2,3.4,3.3,7,3.3h22.8c2.6,0,4.7-1,6-2.9c2.1,2,4.5,2.9,6.9,2.9c4.6,0,8.7-3.5,8.7-9.4
					C715.5,589.5,711.7,585.5,706.6,585.5z M657.1,600.2c-1.7,0-3.6-0.9-5.2-2.7c0.2-0.9,0.3-1.9,0.8-3.4c0.8-3,2.1-4.4,4.3-4.4
					c2.7,0,4.7,2.2,4.7,5.2C661.7,598.3,659.6,600.2,657.1,600.2z M706.7,600.2c-1.7,0-3.6-0.9-5.2-2.7c0.2-0.9,0.4-1.9,0.8-3.4
					c0.8-3,2.1-4.4,4.3-4.4c2.7,0,4.7,2.2,4.7,5.2C711.3,598.3,709.2,600.2,706.7,600.2z"/>
			</g>
			<path class="st0" d="M814.8,585.5v14.7h-3.1c-2.8,0-4.1-1.6-4.1-5v-8.5h-4.2v8.5c0,3.5-1.3,5-3.5,5H796v-13.5h-4.2v13.5h-8.3
				v-14.7h-4.2v14.7h-3.1c-2.8,0-4.1-1.6-4.1-5v-8.5h-4.2v8.5c0,3.5-1.3,5-3.5,5h-3.8v-13.5h-4.2v13.5h-4.9c-3.3,0-4.8-1.5-4.8-5
				v-11.3h-4.2v1.8c-0.8-0.1-1.6-0.2-2.4-0.2c-6.3,0-11.3,3.3-11.3,9.8c0,4.4,3,8.3,7.8,8.3c3.3,0,5.5-1.6,6.6-4.4
				c1.3,3.2,4.2,5.1,8.4,5.1h12.9c2.6,0,4.7-1.1,6.1-3c1.2,2,3.3,3,6.5,3h23c2.6,0,4.7-1.1,6.1-3c1.2,2,3.3,3,6.5,3h6.7v-18.8H814.8
				z M742.3,593c0,3.9-2,6.5-5.2,6.5c-2.8,0-4.4-2-4.4-4.3c0-3.8,3.2-5.8,7.3-5.8c0.8,0,1.5,0.1,2.3,0.2V593z"/>
			<path class="st0" d="M832.8,580.5c-1.1,0-1.9-0.7-1.9-1.7c0-1,0.8-1.5,1.7-1.5c0.4,0,0.9,0.1,1.3,0.3l1.1-2.1
				c-0.9-0.4-1.8-0.6-2.6-0.6c-2.2,0-4.1,1.4-4.1,3.6c0,0.9,0.3,1.6,0.8,2.1h-0.8v2.2h7.2v-2.2H832.8z"/>
			<path class="st0" d="M858.1,585.5c-4.2,0-7.1,2.9-8.4,8c-0.6,2.5-0.6,3.3-1.3,4.9c-0.5,1.1-1.6,1.8-3,1.8h-3.5v-14.7h-6.1
				c-8.6,0-11.8,4.8-11.8,9.6c0,4.6,3,9.2,11.7,9.2h1.7c-0.8,3-3.2,4.4-6.7,4.4c-0.9,0-2-0.1-3.1-0.2v4c1.5,0.3,2.8,0.4,4,0.4
				c5.6,0,9.2-3,10-8.6h3.6c2.6,0,4.7-1,6-2.9c2.1,2,4.5,2.9,6.9,2.9c4.6,0,8.7-3.5,8.7-9.4C867,589.5,863.1,585.5,858.1,585.5z
				 M837.8,600.1h-1.9c-6,0-7.8-2.6-7.8-5.2c0-2.6,1.8-5.2,7.7-5.2h2V600.1z M858.2,600.2c-1.7,0-3.6-0.9-5.2-2.7
				c0.2-0.9,0.3-1.9,0.8-3.4c0.8-3,2.1-4.4,4.3-4.4c2.7,0,4.7,2.2,4.7,5.2C862.8,598.3,860.7,600.2,858.2,600.2z"/>
			<path class="st0" d="M556.1,585.5v14.7H553c-2.8,0-4.1-1.6-4.1-5v-8.5h-4.2v8.5c0,3.5-1.3,5-3.5,5h-3.8v-13.5h-4.2v13.5h-4.9
				c-3.7,0-5.2-1.5-5.2-5v-16.5h-4.2v16.5c0,3.5-1.5,5-4.9,5h0c-3.5,0-5-1.3-5.2-4.5c0.4-6.1-3.8-10.2-8.9-10.2
				c-4.2,0-7.1,2.9-8.4,8c-0.6,2.5-0.6,3.3-1.3,4.9c-0.5,1.1-1.6,1.8-3,1.8h-4.8v-21.5h-4.2v25.6h9.1c2.6,0,4.7-1,6-2.9
				c2.1,2,4.5,2.9,6.9,2.9c2.7,0,5.2-1.2,6.9-3.4c1.2,2.2,3.4,3.3,7,3.3h0c3.3,0,5.8-1.1,7.4-3.2c1.3,2.1,3.5,3.2,6.9,3.2h12.9
				c2.6,0,4.7-1.1,6.1-3c1.2,2,3.3,3,6.5,3h6.7v-18.8H556.1z M500,600.2c-1.7,0-3.6-0.9-5.2-2.7c0.2-0.9,0.4-1.9,0.8-3.4
				c0.8-3,2.1-4.4,4.3-4.4c2.7,0,4.7,2.2,4.7,5.2C504.6,598.3,502.5,600.2,500,600.2z"/>
			<path class="st0" d="M472.6,604.3c-0.9,4.5-4,8.6-11.3,8.6c-7.2,0-11.6-4.3-11.6-12.3v-10.9h4.2v10.9c0,5.1,2,8.3,7.4,8.3
				c5.4,0,7.4-3.1,7.4-8.3v-10.9h4.2v10.5C473,602.5,472.6,604.3,472.6,604.3z"/>
			<path class="st0" d="M609.9,587.9v16.4h-12.9c-0.9,4.5-4,8.6-11.3,8.6s-11.6-4.3-11.6-12.3v-10.9h4.2v10.9c0,5.1,2,8.3,7.4,8.3
				s7.4-3.1,7.4-8.3v-10.9h4.2v10.5h8.3v-12.3H609.9z"/>
			<path class="st0" d="M608.7,609.8c0,1.4-1.2,2.6-2.6,2.6s-2.6-1.2-2.6-2.6c0-1.4,1.2-2.6,2.6-2.6S608.7,608.4,608.7,609.8z"/>
			<path class="st0" d="M737.8,578.9c0,1.4-1.2,2.6-2.6,2.6c-1.4,0-2.6-1.2-2.6-2.6c0-1.4,1.2-2.6,2.6-2.6
				C736.6,576.3,737.8,577.4,737.8,578.9z"/>
			<path class="st0" d="M744.5,578.9c0,1.4-1.2,2.6-2.6,2.6s-2.6-1.2-2.6-2.6c0-1.4,1.2-2.6,2.6-2.6S744.5,577.4,744.5,578.9z"/>
			<path class="st0" d="M588.3,587c0,1.4-1.2,2.6-2.6,2.6s-2.6-1.2-2.6-2.6s1.2-2.6,2.6-2.6S588.3,585.6,588.3,587z"/>
			<path class="st0" d="M464,587c0,1.4-1.2,2.6-2.6,2.6c-1.4,0-2.6-1.2-2.6-2.6s1.2-2.6,2.6-2.6C462.8,584.4,464,585.6,464,587z"/>
		</g>
		<g>
			<g>
				<path class="st0" d="M449.8,623.7h3.9L462,635l8.4-11.3h3.9v24.2h-4.4v-17.1l-7.2,9.9h-1.2l-7.2-9.9v17.1h-4.4V623.7z"/>
				<path class="st0" d="M483.4,647.2c-1.5-0.9-2.6-2-3.4-3.5c-0.8-1.5-1.2-3.1-1.2-4.9c0-1.8,0.4-3.4,1.2-4.9
					c0.8-1.5,2-2.7,3.4-3.5c1.5-0.9,3.1-1.3,4.9-1.3c1.8,0,3.5,0.4,5,1.3c1.5,0.9,2.6,2,3.4,3.5c0.8,1.5,1.2,3.1,1.2,4.9
					c0,1.8-0.4,3.4-1.2,4.9c-0.8,1.5-2,2.7-3.5,3.5c-1.5,0.9-3.1,1.3-5,1.3C486.5,648.5,484.8,648,483.4,647.2z M491.1,643.7
					c0.8-0.5,1.5-1.2,1.9-2c0.5-0.9,0.7-1.8,0.7-2.9c0-1.1-0.2-2.1-0.7-2.9c-0.5-0.9-1.1-1.6-1.9-2s-1.7-0.7-2.7-0.7
					c-1,0-1.9,0.2-2.7,0.7c-0.8,0.5-1.5,1.2-1.9,2s-0.7,1.8-0.7,2.9c0,1.1,0.2,2.1,0.7,2.9c0.5,0.9,1.1,1.5,1.9,2
					c0.8,0.5,1.7,0.7,2.7,0.7S490.2,644.2,491.1,643.7z"/>
				<path class="st0" d="M506.4,622.9v7.4l-0.1,2c0.6-1,1.4-1.8,2.5-2.4c1.1-0.6,2.3-0.9,3.7-0.9c2.4,0,4.3,0.8,5.5,2.3
					c1.2,1.5,1.8,3.8,1.8,6.7v9.9h-4.3v-9.8c0-1.8-0.4-3-1.1-3.9c-0.7-0.8-1.8-1.2-3.1-1.2c-0.8,0-1.6,0.2-2.4,0.7
					c-0.7,0.5-1.3,1.1-1.8,2c-0.5,0.8-0.7,1.8-0.7,2.9v9.3h-4.3v-25H506.4z"/>
				<path class="st0" d="M527.9,647.2c-1.3-0.9-2.3-2-3.1-3.5c-0.7-1.5-1.1-3.1-1.1-4.9c0-1.8,0.4-3.4,1.1-4.9
					c0.8-1.5,1.8-2.7,3.1-3.5c1.3-0.9,2.8-1.3,4.4-1.3c1.5,0,2.8,0.3,4,1c1.2,0.6,2,1.5,2.6,2.7v-3.1h4.1v18.3h-4.1v-3.1
					c-0.6,1.1-1.5,2-2.6,2.7c-1.2,0.6-2.5,1-4,1C530.7,648.5,529.2,648,527.9,647.2z M536.1,643.7c0.8-0.5,1.5-1.2,1.9-2.1
					c0.5-0.9,0.7-1.8,0.7-2.9c0-1-0.2-2-0.7-2.9c-0.5-0.9-1.1-1.6-1.9-2.1c-0.8-0.5-1.7-0.8-2.7-0.8c-1,0-1.9,0.2-2.7,0.7
					c-0.8,0.5-1.5,1.2-1.9,2c-0.5,0.9-0.7,1.9-0.7,3c0,1.1,0.2,2.2,0.7,3c0.5,0.9,1.1,1.5,2,2c0.8,0.5,1.7,0.7,2.7,0.7
					C534.3,644.5,535.2,644.2,536.1,643.7z"/>
				<path class="st0" d="M575.9,631.4c1.2,1.5,1.7,3.8,1.7,6.7v9.9h-4.2v-9.8c0-1.7-0.3-3-1-3.9c-0.7-0.8-1.6-1.2-2.9-1.2
					c-0.8,0-1.5,0.2-2.2,0.7c-0.7,0.5-1.2,1.1-1.6,2c-0.4,0.8-0.6,1.8-0.6,2.9v9.3h-4.3v-9.8c0-1.7-0.3-3-1-3.9
					c-0.7-0.8-1.6-1.2-2.8-1.2c-0.8,0-1.5,0.2-2.2,0.7c-0.7,0.5-1.2,1.1-1.6,2c-0.4,0.8-0.6,1.8-0.6,2.9v9.3h-4.3v-18.3h4l0.1,2.8
					c0.5-1,1.3-1.8,2.3-2.4c1-0.6,2.2-1,3.5-1c1.5,0,2.8,0.3,3.8,1c1,0.7,1.8,1.7,2.3,3.1c0.8-1.4,1.7-2.4,2.8-3.1
					c1.1-0.7,2.3-1,3.6-1C573.1,629.1,574.8,629.8,575.9,631.4z"/>
				<path class="st0" d="M610.5,631.4c1.2,1.5,1.7,3.8,1.7,6.7v9.9H608v-9.8c0-1.7-0.3-3-1-3.9c-0.7-0.8-1.6-1.2-2.9-1.2
					c-0.8,0-1.5,0.2-2.2,0.7c-0.7,0.5-1.2,1.1-1.6,2c-0.4,0.8-0.6,1.8-0.6,2.9v9.3h-4.3v-9.8c0-1.7-0.3-3-1-3.9
					c-0.7-0.8-1.6-1.2-2.8-1.2c-0.8,0-1.5,0.2-2.2,0.7c-0.7,0.5-1.2,1.1-1.6,2c-0.4,0.8-0.6,1.8-0.6,2.9v9.3h-4.3v-18.3h4l0.1,2.8
					c0.5-1,1.3-1.8,2.3-2.4c1-0.6,2.2-1,3.5-1c1.5,0,2.8,0.3,3.8,1c1,0.7,1.8,1.7,2.3,3.1c0.8-1.4,1.7-2.4,2.8-3.1
					c1.1-0.7,2.3-1,3.6-1C607.6,629.1,609.3,629.8,610.5,631.4z"/>
				<path class="st0" d="M634.8,639.9h-14.3c0.1,1,0.5,1.8,0.9,2.5c0.5,0.7,1.1,1.3,1.8,1.6c0.7,0.4,1.5,0.6,2.3,0.6
					c1.1,0,1.9-0.2,2.6-0.6c0.7-0.4,1.2-1,1.5-1.8h4.7c-0.3,1.1-0.9,2.2-1.7,3.1c-0.8,1-1.8,1.7-3,2.3c-1.2,0.6-2.6,0.9-4,0.9
					c-1.8,0-3.4-0.4-4.9-1.3c-1.4-0.9-2.6-2-3.4-3.5c-0.8-1.5-1.2-3.1-1.2-4.9c0-1.8,0.4-3.4,1.2-4.9c0.8-1.5,2-2.7,3.4-3.5
					c1.4-0.9,3.1-1.3,4.9-1.3c1.8,0,3.4,0.4,4.8,1.3c1.4,0.9,2.5,2,3.3,3.4c0.8,1.4,1.2,3,1.2,4.7
					C634.9,638.8,634.8,639.3,634.8,639.9z M630.5,636.6c-0.1-0.7-0.3-1.3-0.8-1.9c-0.5-0.6-1-1-1.8-1.4s-1.5-0.5-2.3-0.5
					c-1.1,0-2.2,0.3-3.1,1c-0.9,0.6-1.5,1.6-1.9,2.8H630.5z"/>
				<path class="st0" d="M641.7,647.2c-1.3-0.9-2.4-2-3.1-3.5c-0.8-1.5-1.1-3.1-1.1-4.9s0.4-3.4,1.1-4.9c0.7-1.5,1.8-2.6,3.1-3.5
					c1.4-0.9,2.9-1.3,4.6-1.3c0.9,0,1.8,0.2,2.6,0.5c0.8,0.3,1.5,0.8,2.1,1.3c0.6,0.5,1.1,1.1,1.4,1.7l-0.1-1.9v-7.8h4.3v25h-4.1
					v-3.1c-0.6,1-1.4,1.9-2.5,2.6c-1.1,0.7-2.4,1-3.8,1C644.6,648.5,643.1,648,641.7,647.2z M649.8,643.7c0.8-0.5,1.5-1.2,2-2.1
					c0.5-0.9,0.7-1.8,0.7-2.9s-0.2-2-0.7-2.9c-0.5-0.9-1.1-1.6-1.9-2.1c-0.8-0.5-1.7-0.8-2.7-0.8c-1,0-1.9,0.2-2.7,0.7
					c-0.8,0.5-1.5,1.2-1.9,2c-0.5,0.9-0.7,1.8-0.7,2.9c0,1.1,0.2,2,0.7,2.9c0.5,0.9,1.1,1.6,1.9,2.1c0.8,0.5,1.7,0.8,2.8,0.8
					C648,644.5,648.9,644.2,649.8,643.7z"/>
			</g>
			<path class="st0" d="M681,623.7c1.5,0,2.7,0.3,3.9,0.8s2,1.3,2.6,2.3c0.6,1,0.9,2.1,0.9,3.5c0,0.7-0.1,1.4-0.4,2
				c-0.3,0.7-0.6,1.2-1.1,1.7c-0.5,0.5-1,0.9-1.5,1.1c0.8,0.3,1.6,0.7,2.2,1.2c0.7,0.6,1.2,1.2,1.6,2c0.4,0.8,0.6,1.6,0.6,2.5
				c0,1.5-0.4,2.8-1.1,3.9c-0.7,1.1-1.7,1.9-2.9,2.4s-2.4,0.8-3.8,0.8h-11.6v-24.2H681z M682.4,633.4c0.5-0.3,0.8-0.7,1.1-1.1
				c0.3-0.5,0.4-1,0.4-1.6c0-0.6-0.1-1.1-0.4-1.6c-0.3-0.5-0.6-0.9-1.1-1.1c-0.5-0.3-1-0.4-1.6-0.4h-5.9v6.3h5.9
				C681.4,633.8,681.9,633.7,682.4,633.4z M683.5,643.6c0.6-0.3,1-0.7,1.3-1.3c0.3-0.5,0.5-1.1,0.5-1.8c0-0.6-0.2-1.2-0.5-1.7
				c-0.3-0.5-0.7-0.9-1.3-1.2c-0.5-0.3-1.1-0.5-1.8-0.5h-6.7v6.9h6.7C682.3,644.1,682.9,643.9,683.5,643.6z"/>
			<rect x="693.8" y="629.6" class="st0" width="4.3" height="18.3"/>
			<path class="st0" d="M707.6,629.6v2.8c0.5-1,1.4-1.8,2.5-2.5c1.1-0.6,2.4-0.9,3.8-0.9c2.4,0,4.3,0.8,5.5,2.3
				c1.2,1.5,1.8,3.8,1.8,6.7v9.9h-4.3v-9.8c0-1.8-0.4-3-1.1-3.9c-0.7-0.8-1.8-1.2-3.1-1.2c-0.9,0-1.7,0.2-2.4,0.6
				c-0.7,0.4-1.3,1.1-1.8,1.9c-0.4,0.8-0.7,1.8-0.7,3v9.3h-4.3v-18.3H707.6z"/>
			<g>
				<path class="st0" d="M737.7,647.3c-1.5-0.7-2.6-1.7-3.3-2.9c-0.7-1.2-1-2.4-1-3.8h4.4c0,0.8,0.2,1.4,0.6,2.1
					c0.4,0.6,1,1.1,1.9,1.5c0.8,0.4,1.8,0.5,2.9,0.5c3.6,0,5.4-1.2,5.4-3.6c0-0.7-0.2-1.3-0.7-1.8c-0.4-0.5-1.1-0.8-1.9-1.1
					c-0.8-0.3-1.8-0.6-3-0.8c-1.7-0.4-3.2-0.8-4.5-1.3c-1.3-0.5-2.4-1.2-3.2-2.2c-0.9-1-1.3-2.3-1.3-3.8c0-1.4,0.3-2.5,1-3.6
					c0.7-1,1.7-1.9,3-2.5c1.4-0.6,3-0.9,5.1-0.9c2,0,3.6,0.3,5,0.9c1.4,0.6,2.4,1.4,3.1,2.5c0.7,1.1,1,2.4,1,3.8h-4.4
					c0-1-0.4-1.8-1.2-2.4c-0.8-0.6-2-0.9-3.5-0.9c-1.7,0-2.9,0.3-3.5,0.9c-0.7,0.6-1,1.3-1,2.2c0,0.7,0.2,1.2,0.7,1.7
					c0.4,0.5,1.1,0.8,2,1.1c0.9,0.3,2,0.6,3.4,0.8c2.6,0.5,4.7,1.3,6.2,2.4c1.6,1.1,2.3,2.8,2.3,5c0,1.5-0.4,2.9-1.2,4
					c-0.8,1.1-2,1.9-3.4,2.5c-1.5,0.6-3.2,0.9-5.2,0.9C741.1,648.5,739.2,648.1,737.7,647.3z"/>
				<path class="st0" d="M760,647.2c-1.3-0.9-2.3-2-3.1-3.5c-0.7-1.5-1.1-3.1-1.1-4.9c0-1.8,0.4-3.4,1.1-4.9
					c0.8-1.5,1.8-2.7,3.1-3.5c1.3-0.9,2.8-1.3,4.4-1.3c1.5,0,2.8,0.3,4,1c1.2,0.6,2,1.5,2.6,2.7v-3.1h4.1v18.3H771v-3.1
					c-0.6,1.1-1.5,2-2.6,2.7c-1.2,0.6-2.5,1-4,1C762.8,648.5,761.4,648,760,647.2z M768.2,643.7c0.8-0.5,1.5-1.2,1.9-2.1
					c0.5-0.9,0.7-1.8,0.7-2.9c0-1-0.2-2-0.7-2.9c-0.5-0.9-1.1-1.6-1.9-2.1c-0.8-0.5-1.7-0.8-2.7-0.8c-1,0-1.9,0.2-2.7,0.7
					c-0.8,0.5-1.5,1.2-1.9,2c-0.5,0.9-0.7,1.9-0.7,3c0,1.1,0.2,2.2,0.7,3c0.5,0.9,1.1,1.5,2,2c0.8,0.5,1.7,0.7,2.7,0.7
					C766.4,644.5,767.4,644.2,768.2,643.7z"/>
				<path class="st0" d="M780.5,622.9h4.3v25.1h-4.3V622.9z"/>
				<path class="st0" d="M817.7,631.4c1.2,1.5,1.7,3.8,1.7,6.7v9.9h-4.2v-9.8c0-1.7-0.3-3-1-3.9c-0.7-0.8-1.6-1.2-2.9-1.2
					c-0.8,0-1.5,0.2-2.2,0.7c-0.7,0.5-1.2,1.1-1.6,2c-0.4,0.8-0.6,1.8-0.6,2.9v9.3h-4.3v-9.8c0-1.7-0.3-3-1-3.9
					c-0.7-0.8-1.6-1.2-2.8-1.2c-0.8,0-1.5,0.2-2.2,0.7c-0.7,0.5-1.2,1.1-1.6,2c-0.4,0.8-0.6,1.8-0.6,2.9v9.3h-4.3v-18.3h4l0.1,2.8
					c0.5-1,1.3-1.8,2.3-2.4c1-0.6,2.2-1,3.5-1c1.5,0,2.8,0.3,3.8,1c1,0.7,1.8,1.7,2.3,3.1c0.8-1.4,1.7-2.4,2.8-3.1
					c1.1-0.7,2.3-1,3.6-1C814.9,629.1,816.6,629.8,817.7,631.4z"/>
				<path class="st0" d="M827.7,647.2c-1.3-0.9-2.3-2-3.1-3.5c-0.7-1.5-1.1-3.1-1.1-4.9c0-1.8,0.4-3.4,1.1-4.9
					c0.8-1.5,1.8-2.7,3.1-3.5c1.3-0.9,2.8-1.3,4.4-1.3c1.5,0,2.8,0.3,4,1c1.2,0.6,2,1.5,2.6,2.7v-3.1h4.1v18.3h-4.1v-3.1
					c-0.6,1.1-1.5,2-2.6,2.7c-1.2,0.6-2.5,1-4,1C830.4,648.5,829,648,827.7,647.2z M835.8,643.7c0.8-0.5,1.5-1.2,1.9-2.1
					c0.5-0.9,0.7-1.8,0.7-2.9c0-1-0.2-2-0.7-2.9c-0.5-0.9-1.1-1.6-1.9-2.1c-0.8-0.5-1.7-0.8-2.7-0.8c-1,0-1.9,0.2-2.7,0.7
					c-0.8,0.5-1.5,1.2-1.9,2c-0.5,0.9-0.7,1.9-0.7,3c0,1.1,0.2,2.2,0.7,3c0.5,0.9,1.1,1.5,2,2c0.8,0.5,1.7,0.7,2.7,0.7
					C834.1,644.5,835,644.2,835.8,643.7z"/>
				<path class="st0" d="M852.2,629.6v2.8c0.5-1,1.4-1.8,2.5-2.5c1.1-0.6,2.4-0.9,3.8-0.9c2.4,0,4.3,0.8,5.5,2.3
					c1.2,1.5,1.8,3.8,1.8,6.7v9.9h-4.3v-9.8c0-1.8-0.4-3-1.1-3.9c-0.7-0.8-1.8-1.2-3.1-1.2c-0.9,0-1.7,0.2-2.4,0.6
					c-0.7,0.4-1.3,1.1-1.8,1.9c-0.4,0.8-0.7,1.8-0.7,3v9.3h-4.3v-18.3H852.2z"/>
			</g>
			<path class="st0" d="M449.8,660.5h16.6v4h-12.1v7h10.5v3.7h-10.5v9.5h-4.4V660.5z"/>
			<path class="st0" d="M472.1,684c-1.5-0.9-2.6-2-3.4-3.5c-0.8-1.5-1.2-3.1-1.2-4.9c0-1.8,0.4-3.4,1.2-4.9c0.8-1.5,2-2.7,3.4-3.5
				c1.5-0.9,3.1-1.3,4.9-1.3c1.8,0,3.5,0.4,5,1.3c1.5,0.9,2.6,2,3.4,3.5c0.8,1.5,1.2,3.1,1.2,4.9c0,1.8-0.4,3.4-1.2,4.9
				c-0.8,1.5-2,2.7-3.5,3.5c-1.5,0.9-3.1,1.3-5,1.3C475.2,685.3,473.6,684.8,472.1,684z M479.8,680.5c0.8-0.5,1.5-1.2,1.9-2
				c0.5-0.9,0.7-1.8,0.7-2.9c0-1.1-0.2-2.1-0.7-2.9c-0.5-0.9-1.1-1.6-1.9-2c-0.8-0.5-1.7-0.7-2.7-0.7c-1,0-1.9,0.2-2.7,0.7
				c-0.8,0.5-1.5,1.2-1.9,2s-0.7,1.8-0.7,2.9c0,1.1,0.2,2.1,0.7,2.9c0.5,0.9,1.1,1.5,1.9,2c0.8,0.5,1.7,0.7,2.7,0.7
				C478.1,681.3,479,681,479.8,680.5z"/>
			<path class="st0" d="M494.6,684.3c-1.3-0.6-2.3-1.6-3-3c-0.7-1.4-1.1-3.1-1.1-5.2v-9.8h4.3v9.6c0,1.7,0.4,3,1.1,3.9
				c0.7,0.9,1.8,1.3,3.2,1.3c1.4,0,2.5-0.4,3.2-1.3c0.7-0.9,1.1-2.2,1.1-3.9v-9.6h4.3v9.8c0,2.1-0.4,3.8-1.1,5.2
				c-0.7,1.3-1.7,2.3-3,3c-1.3,0.6-2.8,0.9-4.4,0.9C497.3,685.3,495.9,685,494.6,684.3z"/>
			<path class="st0" d="M516.7,666.4v2.8c0.5-1,1.4-1.8,2.5-2.5c1.1-0.6,2.4-0.9,3.8-0.9c2.4,0,4.3,0.8,5.5,2.3
				c1.2,1.5,1.8,3.8,1.8,6.7v9.9H526V675c0-1.8-0.4-3-1.1-3.9c-0.7-0.8-1.8-1.2-3.1-1.2c-0.9,0-1.7,0.2-2.4,0.6
				c-0.7,0.4-1.3,1.1-1.8,1.9c-0.4,0.8-0.7,1.8-0.7,3v9.3h-4.3v-18.3H516.7z"/>
			<path class="st0" d="M538.6,684c-1.3-0.9-2.4-2-3.1-3.5c-0.8-1.5-1.1-3.1-1.1-4.9s0.4-3.4,1.1-4.9c0.7-1.5,1.8-2.6,3.1-3.5
				c1.4-0.9,2.9-1.3,4.6-1.3c0.9,0,1.8,0.2,2.6,0.5c0.8,0.3,1.5,0.8,2.1,1.3c0.6,0.5,1.1,1.1,1.4,1.7l-0.1-1.9v-7.8h4.3v25h-4.1
				v-3.1c-0.6,1-1.4,1.9-2.5,2.6c-1.1,0.7-2.4,1-3.8,1C541.4,685.3,539.9,684.8,538.6,684z M546.6,680.6c0.8-0.5,1.5-1.2,2-2.1
				c0.5-0.9,0.7-1.8,0.7-2.9s-0.2-2-0.7-2.9c-0.5-0.9-1.1-1.6-1.9-2.1c-0.8-0.5-1.7-0.8-2.7-0.8c-1,0-1.9,0.2-2.7,0.7
				s-1.5,1.2-1.9,2c-0.5,0.9-0.7,1.8-0.7,2.9c0,1.1,0.2,2,0.7,2.9c0.5,0.9,1.1,1.6,1.9,2.1c0.8,0.5,1.7,0.8,2.8,0.8
				C544.9,681.3,545.8,681.1,546.6,680.6z"/>
			<path class="st0" d="M561.8,684c-1.3-0.9-2.3-2-3.1-3.5c-0.7-1.5-1.1-3.1-1.1-4.9c0-1.8,0.4-3.4,1.1-4.9c0.8-1.5,1.8-2.7,3.1-3.5
				c1.3-0.9,2.8-1.3,4.4-1.3c1.5,0,2.8,0.3,4,1c1.2,0.6,2,1.5,2.6,2.7v-3.1h4.1v18.3h-4.1v-3.1c-0.6,1.1-1.5,2-2.6,2.7
				c-1.2,0.6-2.5,1-4,1C564.6,685.3,563.2,684.8,561.8,684z M570,680.5c0.8-0.5,1.5-1.2,1.9-2.1c0.5-0.9,0.7-1.8,0.7-2.9
				c0-1-0.2-2-0.7-2.9c-0.5-0.9-1.1-1.6-1.9-2.1c-0.8-0.5-1.7-0.8-2.7-0.8c-1,0-1.9,0.2-2.7,0.7c-0.8,0.5-1.5,1.2-1.9,2
				c-0.5,0.9-0.7,1.9-0.7,3c0,1.1,0.2,2.2,0.7,3c0.5,0.9,1.1,1.5,2,2c0.8,0.5,1.7,0.7,2.7,0.7C568.3,681.3,569.2,681,570,680.5z"/>
			<path class="st0" d="M585.5,683.3c-1.2-1-1.7-2.8-1.7-5.5v-7.6H580v-3.7h3.8v-5.4l4.3,0v5.4h5.5v3.7h-5.5v7.8
				c0,2.1,0.9,3.2,2.6,3.2h2.8v3.6h-3.7C588.1,684.7,586.7,684.2,585.5,683.3z"/>
			<rect x="597.4" y="666.4" class="st0" width="4.3" height="18.3"/>
			<path class="st0" d="M610.5,684c-1.5-0.9-2.6-2-3.4-3.5c-0.8-1.5-1.2-3.1-1.2-4.9c0-1.8,0.4-3.4,1.2-4.9c0.8-1.5,2-2.7,3.4-3.5
				c1.5-0.9,3.1-1.3,4.9-1.3c1.8,0,3.5,0.4,5,1.3c1.5,0.9,2.6,2,3.4,3.5c0.8,1.5,1.2,3.1,1.2,4.9c0,1.8-0.4,3.4-1.2,4.9
				c-0.8,1.5-2,2.7-3.5,3.5c-1.5,0.9-3.1,1.3-5,1.3C613.6,685.3,612,684.8,610.5,684z M618.2,680.5c0.8-0.5,1.5-1.2,1.9-2
				c0.5-0.9,0.7-1.8,0.7-2.9c0-1.1-0.2-2.1-0.7-2.9c-0.5-0.9-1.1-1.6-1.9-2s-1.7-0.7-2.7-0.7c-1,0-1.9,0.2-2.7,0.7s-1.5,1.2-1.9,2
				s-0.7,1.8-0.7,2.9c0,1.1,0.2,2.1,0.7,2.9c0.5,0.9,1.1,1.5,1.9,2c0.8,0.5,1.7,0.7,2.7,0.7S617.4,681,618.2,680.5z"/>
			<path class="st0" d="M633.3,666.4v2.8c0.5-1,1.4-1.8,2.5-2.5c1.1-0.6,2.4-0.9,3.8-0.9c2.4,0,4.3,0.8,5.5,2.3
				c1.2,1.5,1.8,3.8,1.8,6.7v9.9h-4.3V675c0-1.8-0.4-3-1.1-3.9c-0.7-0.8-1.8-1.2-3.1-1.2c-0.9,0-1.7,0.2-2.4,0.6
				c-0.7,0.4-1.3,1.1-1.8,1.9c-0.4,0.8-0.7,1.8-0.7,3v9.3h-4.3v-18.3H633.3z"/>
			<path class="st0" d="M698.6,624.3c0,1.4-1.2,2.6-2.6,2.6s-2.6-1.2-2.6-2.6s1.2-2.6,2.6-2.6S698.6,622.9,698.6,624.3z"/>
			<path class="st0" d="M602.2,661.1c0,1.4-1.2,2.6-2.6,2.6s-2.6-1.2-2.6-2.6s1.2-2.6,2.6-2.6S602.2,659.7,602.2,661.1z"/>
		</g>
		<g>
			<g>
				<path class="st0" d="M449.8,504.6h10.5l18.9,25.8h0l19.1-25.8h10.4v57.6h-11.9v-38.5l-16,22.1h-3.1l-15.9-22.2v38.6h-11.9V504.6
					z"/>
				<path class="st0" d="M522.3,518.5h11.6v43.7h-11.6V518.5z"/>
				<path class="st0" d="M563,563.6c-12.8,0-19.1-7.5-19.1-15.5l11.2,0c0.4,5.9,6.3,6.2,8,6.2c1.6,0,6.7-0.1,6.7-4.7
					c0-3-2.5-4.1-8.4-4.9c-3.1-0.4-15.8-1.8-15.8-13.8c0-8.2,5.6-13.8,16.9-13.8c9.9,0,18,5.3,18,14.4l-11.4-0.1
					c-0.2-1.9-1.3-4.9-6.6-4.9s-5.5,3.3-5.5,4.1c0,2.7,1.8,3.2,3.1,3.6c1.3,0.4,2.8,0.7,6.4,1.3c7.3,1.2,15.3,3.3,15.3,13.4
					C581.8,559.2,573.2,563.6,563,563.6z"/>
				<polygon class="st0" points="633.5,562.2 620.5,562.2 610.7,544.2 603.9,553 603.9,562.2 592.2,562.2 592.2,504.6 603.9,504.6 
					603.9,535.9 617.7,518.5 630.6,518.5 618.1,534.7 				"/>
				<circle class="st0" cx="528.2" cy="506" r="6.5"/>
			</g>
			<g>
				<path class="st0" d="M700.4,530.7h-21.7v-6.6h2.4c-1.6-1.4-2.4-3.4-2.4-6.1c0-6.5,5.6-10.6,12.2-10.6c2.5,0,5.2,0.6,7.8,1.9
					l-3.2,6.3c-1.4-0.5-2.7-0.9-4-0.9c-2.8,0-5.2,1.3-5.2,4.4c0,3.1,2.4,5.1,5.7,5.1h8.3V530.7z"/>
				<path class="st0" d="M846.5,519.3c-9.6,0-17.4,6.1-20.5,18.7c-2,8.1-2.7,12.6-7.8,12.6h-3.9c-5.5,0-8.1-3.1-8.1-10v-21.4h-11.8
					l0,22c0,8.9-4.7,9.4-6.7,9.4h-7.3v-28.8h-11.8v28.8h-14v-28.8h-11.8v28.8h-6.4c-4.2,0-7.5-0.9-9.5-2.9c-1.6-1.6-2.5-4-2.5-7.1
					v-36h-11.8v36c0,7-2.9,10-9.8,10h-21c-10.2,0-15.4-5.2-15.4-13.5c0-2.6,0.5-5.4,1.5-8.5h-11c-1.6,4.3-2.3,8.1-2.3,11.6
					c0,14.8,13.2,22.1,27.3,22.1h21c7.3,0,13.1-2.5,16.8-6.9c2.8,4.4,8,6.8,16.1,6.9c0.1,0,53.6,0,53.6,0c8.2,0,12.1-5.8,12.5-6.4
					c2.6,4.2,7,6.4,14.1,6.4h1.9c5.8,0,10.6-2.1,13.8-5.9c4.8,4,10.5,5.9,16,5.9c12.2,0,20-9.7,20-20.6
					C867.6,530.9,859.9,519.3,846.5,519.3z M845.8,551.4c-3.3,0-7.1-1.2-10.2-3.6c0.7-2.6,1.1-4.6,2-7.7c1.7-6.1,4.5-9.1,9-9.1
					c7,0,9.5,6.8,9.5,10.6C856,548.2,851.2,551.4,845.8,551.4z"/>
			</g>
		</g>
	</g>
</g>
</svg>
