<?xml version="1.0" encoding="UTF-8"?>
<svg id="Layer_2" data-name="Layer 2" xmlns="http://www.w3.org/2000/svg" viewBox="0 0 1000 1000">
  <defs>
    <style>
      .cls-1 {
        fill: #5f9735;
      }

      .cls-1, .cls-2 {
        stroke-width: 0px;
      }

      .cls-2 {
        fill: #4e4d4d;
      }
    </style>
  </defs>
  <g>
    <path class="cls-2" d="M161.03,592.31h0c1.38-.94,3.25-1.42,5.55-1.42,2.48,0,5.2.57,8.11,1.7l.15.06,1.68-5.03-.14-.06c-3.31-1.31-6.55-1.99-9.62-1.99-3.91,0-7.15.98-9.64,2.93-2.5,1.95-3.77,4.49-3.77,7.54,0,3.82,1.8,6.73,5.35,8.64,1.21.65,2.63,1.19,4.22,1.62,1.58.42,2.89.74,3.89.94.96.2,1.8.58,2.5,1.15.69.56,1.02,1.31,1.02,2.3,0,2.78-2.77,4.19-8.23,4.19h-4.35c-7.43,0-11.03-2.95-11.03-9.01,0-1.62.23-3.38.7-5.23l.05-.19h-5.17l-.03.11c-.67,2.31-1.02,4.51-1.02,6.54,0,4.39,1.56,7.73,4.65,9.93,3.07,2.19,7.06,3.3,11.87,3.3h4.35c4.37,0,7.8-.86,10.21-2.55,2.42-1.7,3.64-4.09,3.64-7.08,0-1.45-.26-2.75-.78-3.84-.52-1.1-1.29-2.01-2.29-2.7-.98-.68-1.92-1.21-2.79-1.58-.86-.37-1.94-.71-3.2-1.04-3.24-.86-5.4-1.7-6.42-2.47-1.01-.77-1.5-1.76-1.5-3.04,0-1.53.69-2.79,2.06-3.71Z"/>
    <path class="cls-2" d="M154.52,623.84c-.86,0-1.61.31-2.23.92-.62.62-.94,1.38-.94,2.26s.32,1.65.94,2.26c.62.61,1.38.92,2.23.92s1.61-.31,2.24-.92c.62-.62.94-1.38.94-2.26s-.32-1.65-.94-2.26c-.63-.61-1.38-.92-2.24-.92Z"/>
    <path class="cls-2" d="M162.42,623.84c-.86,0-1.61.31-2.23.92-.62.62-.94,1.38-.94,2.26s.32,1.65.94,2.26,1.38.92,2.23.92,1.61-.31,2.23-.92.94-1.38.94-2.26-.32-1.65-.94-2.26c-.62-.61-1.38-.92-2.23-.92Z"/>
    <path class="cls-2" d="M199.72,588.96c-2.99-2.27-7.15-3.43-12.33-3.43h-2.79v5.62h2.7c3.93,0,6.84.62,8.64,1.84,1.79,1.21,2.7,3.06,2.7,5.51,0,1.99-.48,3.43-1.43,4.25-.96.83-2.63,1.26-4.95,1.26h-10.13v5.48h10.16c3.85,0,6.84-.96,8.88-2.85,2.04-1.89,3.07-4.67,3.07-8.27,0-3.95-1.51-7.12-4.52-9.41Z"/>
    <path class="cls-2" d="M323.65,576.97v20.92c0,2.11-.49,3.67-1.45,4.64s-2.49,1.46-4.54,1.46c-2.25,0-3.91-.48-4.89-1.44-.98-.96-1.48-2.53-1.48-4.67v-12.35h-5.63v12.36c0,4.11-1.38,6.12-4.23,6.12-3.11,0-4.62-2-4.62-6.12v-10.91h-5.63v10.91c0,4.11-1.38,6.12-4.23,6.12-3.11,0-4.63-2-4.63-6.12v-10.91h-5.61v10.91c0,2.11-.49,3.67-1.45,4.64s-2.49,1.46-4.54,1.46h-8.24l5-4.51.06-.04.04-1.55c0-3.51-1.22-6.48-3.64-8.82-2.42-2.35-5.45-3.54-9.01-3.54s-6.55,1.18-8.96,3.54c-2.42,2.34-3.65,5.31-3.65,8.82v1.55l5.07,4.55h-14.78v-5.19c0-4-1.06-7.25-3.17-9.65-2.11-2.4-4.84-3.63-8.12-3.63-3.51,0-6.35,1.23-8.41,3.65-2.07,2.42-3.11,5.29-3.11,8.52s1.02,5.97,3.03,8.28c2.01,2.32,4.83,3.5,8.4,3.5h5.46c-.98,3.43-3.74,5.17-8.17,5.17-1.26,0-2.58-.1-3.87-.3l-.18-.02v5.39l.13.02c1.83.35,3.55.52,5.11.52,3.56,0,6.48-.94,8.67-2.79,2.18-1.83,3.54-4.52,4.05-7.99h18.05c.85,0,1.62-.19,2.3-.57.67-.38,1.13-.7,1.38-1,.22-.26.49-.61.8-1.04.32.44.59.78.8,1.04.25.3.7.62,1.38,1,.68.38,1.45.57,2.29.57h11.33c4.03,0,7.12-1.29,9.19-3.83,1.44,2.53,3.81,3.83,7.04,3.83s5.76-1.22,7.54-3.61c1.46,2.39,3.8,3.61,6.94,3.61s5.86-1.26,7.64-3.75c1.69,2.48,4.58,3.75,8.6,3.75,3.59,0,6.46-1.05,8.52-3.1,2.05-2.05,3.1-4.91,3.1-8.51v-20.92h-5.63v.02ZM227.06,604h-5.76c-1.88,0-3.39-.65-4.49-1.92-1.12-1.27-1.67-2.79-1.67-4.51s.55-3.23,1.65-4.51c1.09-1.27,2.58-1.92,4.42-1.92,1.67,0,3.08.66,4.19,1.95,1.11,1.29,1.66,3.17,1.66,5.58v5.33ZM254.93,604.21l-7.04-6.48c.13-1.93.85-3.53,2.14-4.73,1.31-1.23,2.96-1.85,4.9-1.85s3.58.62,4.9,1.85c1.29,1.21,2.01,2.79,2.14,4.73l-7.04,6.48Z"/>
    <rect class="cls-2" x="334.93" y="576.98" width="5.62" height="32.51"/>
    <path class="cls-2" d="M371.59,581.72c.89,0,1.65-.32,2.26-.94s.92-1.38.92-2.24-.31-1.61-.92-2.23c-.61-.62-1.37-.94-2.26-.94s-1.65.32-2.26.94-.92,1.38-.92,2.23.31,1.61.92,2.24,1.37.94,2.26.94Z"/>
    <path class="cls-2" d="M363.69,581.72c.89,0,1.65-.32,2.26-.94s.92-1.38.92-2.24-.31-1.61-.92-2.23c-.61-.62-1.37-.94-2.26-.94s-1.65.32-2.26.94-.92,1.38-.92,2.23.31,1.61.92,2.24c.61.62,1.38.94,2.26.94Z"/>
    <path class="cls-2" d="M388.66,613.09c-.86,0-1.61.32-2.23.94s-.94,1.38-.94,2.23.32,1.61.94,2.23,1.38.94,2.23.94,1.61-.32,2.23-.94.94-1.38.94-2.23-.32-1.61-.94-2.23c-.62-.63-1.38-.94-2.23-.94Z"/>
    <path class="cls-2" d="M396.56,613.09c-.86,0-1.62.32-2.23.94-.62.62-.94,1.38-.94,2.23s.32,1.61.94,2.23,1.38.94,2.23.94,1.61-.32,2.23-.94.94-1.38.94-2.23-.32-1.61-.94-2.23c-.62-.63-1.38-.94-2.23-.94Z"/>
    <path class="cls-2" d="M416.03,604c-2.63,0-4.61-.5-5.87-1.52-1.24-1-1.87-2.61-1.87-4.78s.73-3.74,2.15-4.94c1.44-1.22,3.34-1.83,5.63-1.83,1.96,0,4.26.51,6.84,1.53l.14.06,1.91-4.98-.14-.06c-3.31-1.32-6.32-1.99-8.92-1.99-3.79,0-6.98,1.11-9.47,3.31-2.5,2.19-3.76,5.13-3.76,8.73,0,2.91.94,5.08,2.79,6.47h-3.63c-2.27,0-3.91-.48-4.9-1.44-.98-.96-1.48-2.53-1.48-4.67v-9.33h-5.63v9.33c0,2.11-.48,3.67-1.45,4.64-.95.98-2.48,1.46-4.53,1.46s-3.57-.49-4.52-1.46c-.94-.98-1.42-2.55-1.42-4.65v-14.33h-5.61v2.27c-1.11-.13-2.1-.2-2.91-.2-4.17,0-7.64,1.09-10.33,3.24-2.69,2.15-4.05,5.25-4.05,9.21,0,2.87.94,5.36,2.79,7.42,1.84,2.08,4.29,3.13,7.24,3.13,4.02,0,6.79-1.79,8.25-5.31.81,1.9,2.11,3.4,3.84,4.47,1.84,1.14,4.11,1.72,6.73,1.72,4.09,0,7.2-1.32,9.24-3.92,1.66,2.6,4.59,3.92,8.74,3.92h23.85v-5.49h-9.63ZM372.27,595.2c0,2.41-.58,4.38-1.74,5.83-1.15,1.45-2.71,2.19-4.63,2.19-1.65,0-2.97-.51-3.92-1.54-.97-1.02-1.46-2.27-1.46-3.71,0-2.22.85-3.96,2.51-5.19,1.67-1.25,3.85-1.89,6.47-1.89.9,0,1.84.08,2.79.25v4.07Z"/>
    <path class="cls-2" d="M456.56,585.4c.86,0,1.61-.32,2.23-.94s.94-1.38.94-2.23-.32-1.61-.94-2.23-1.38-.94-2.23-.94-1.61.32-2.23.94-.94,1.38-.94,2.23.32,1.61.94,2.23c.62.63,1.38.94,2.23.94Z"/>
    <path class="cls-2" d="M513.88,576.97v20.92c0,2.11-.49,3.67-1.45,4.64s-2.49,1.46-4.54,1.46-3.64-.41-4.63-1.23c-.98-.82-1.55-2.14-1.7-3.92v-.52c0-3.63-1.41-6.7-4.19-9.12-2.77-2.41-6.16-3.63-10.1-3.63-3.15,0-5.88.7-8.16,2.06-2.09,1.26-3.76,3.05-4.99,5.31v-7.41h-5.57v18.47h-2.79c-2.25,0-3.91-.48-4.89-1.44-.98-.96-1.5-2.53-1.5-4.67v-9.33h-5.61v9.33c0,2.11-.49,3.67-1.45,4.64s-2.49,1.46-4.54,1.46h-4.9c-2.02,0-3.54-.5-4.5-1.48-.96-.98-1.44-2.55-1.44-4.63v-20.92h-5.63v20.92c0,3.59,1.04,6.45,3.07,8.51,2.04,2.05,4.89,3.1,8.48,3.1h4.91c4.1,0,7.2-1.32,9.25-3.92,1.65,2.6,4.59,3.92,8.74,3.92h24.18c4.06,0,7.18-1.29,9.29-3.84,1.62,2.55,4.54,3.84,8.65,3.84,3.59,0,6.46-1.05,8.52-3.1,2.05-2.05,3.1-4.91,3.1-8.51v-20.92h-5.63v.02ZM494.49,602.59c-.96.94-2.49,1.41-4.54,1.41h-15.86v-.94c.12-3.3,1.47-6.14,4.05-8.43,2.58-2.29,5.65-3.45,9.13-3.45,2.52,0,4.63.67,6.24,1.99,1.61,1.3,2.42,3.04,2.42,5.15,0,1.91-.48,3.35-1.44,4.27Z"/>
    <rect class="cls-2" x="525.15" y="576.98" width="5.62" height="32.51"/>
    <path class="cls-2" d="M561.81,581.72c.89,0,1.65-.32,2.26-.94s.92-1.38.92-2.24-.31-1.61-.92-2.23-1.38-.94-2.26-.94-1.65.32-2.26.94-.92,1.38-.92,2.23.31,1.61.92,2.24c.61.62,1.37.94,2.26.94Z"/>
    <path class="cls-2" d="M553.91,581.72c.89,0,1.65-.32,2.26-.94s.92-1.38.92-2.24-.31-1.61-.92-2.23-1.37-.94-2.26-.94-1.65.32-2.26.94-.92,1.38-.92,2.23.31,1.61.92,2.24c.61.62,1.37.94,2.26.94Z"/>
    <path class="cls-2" d="M578.88,613.09c-.86,0-1.61.32-2.23.94-.62.62-.94,1.38-.94,2.23s.32,1.61.94,2.23c.62.62,1.38.94,2.23.94s1.61-.32,2.24-.94c.62-.62.94-1.38.94-2.23s-.32-1.61-.94-2.23c-.63-.63-1.38-.94-2.24-.94Z"/>
    <path class="cls-2" d="M586.78,613.09c-.86,0-1.62.32-2.23.94-.62.62-.94,1.38-.94,2.23s.32,1.61.94,2.23c.62.62,1.38.94,2.23.94s1.61-.32,2.23-.94c.62-.62.94-1.38.94-2.23s-.32-1.61-.94-2.23c-.62-.63-1.38-.94-2.23-.94Z"/>
    <path class="cls-2" d="M638.38,585.4c.86,0,1.61-.32,2.23-.94.62-.62.94-1.38.94-2.23s-.32-1.61-.94-2.23c-.62-.62-1.38-.94-2.23-.94s-1.61.32-2.23.94c-.62.62-.94,1.38-.94,2.23s.32,1.61.94,2.23c.62.63,1.38.94,2.23.94Z"/>
    <path class="cls-2" d="M660.44,585.36c.88,0,1.64-.31,2.26-.92.61-.61.92-1.37.92-2.26s-.31-1.65-.92-2.26c-.62-.61-1.38-.92-2.26-.92s-1.65.31-2.26.92c-.62.61-.92,1.38-.92,2.26s.31,1.65.92,2.26c.61.61,1.37.92,2.26.92Z"/>
    <path class="cls-2" d="M652.54,585.36c.89,0,1.65-.31,2.26-.92.61-.61.92-1.37.92-2.26s-.31-1.65-.92-2.26-1.38-.92-2.26-.92-1.65.31-2.26.92c-.62.61-.92,1.38-.92,2.26s.31,1.65.92,2.26c.62.61,1.37.92,2.26.92Z"/>
    <path class="cls-2" d="M671.56,576.97v20.92c0,2.11-.49,3.67-1.45,4.64-.95.98-2.48,1.46-4.53,1.46-2.27,0-3.91-.49-4.9-1.44-.98-.96-1.48-2.53-1.48-4.67v-9.33h-5.63v9.33c0,2.11-.48,3.67-1.44,4.64s-2.49,1.46-4.54,1.46c-2.27,0-3.91-.48-4.9-1.44-.98-.96-1.48-2.53-1.48-4.67v-9.33h-5.63v9.33c0,2.11-.48,3.67-1.44,4.64s-2.49,1.46-4.54,1.46-3.74-.44-4.72-1.3c-.98-.86-1.54-2.25-1.66-4.14.02-.22.04-.55.04-.98,0-3.38-1.1-6.27-3.27-8.57-2.18-2.3-4.91-3.47-8.12-3.47-2.67,0-4.95.89-6.78,2.66-1.83,1.75-3.15,4.28-3.95,7.51-.18.81-.37,1.64-.52,2.47-.18.87-.33,1.56-.46,2.05-.13.49-.32,1.05-.58,1.65-.59,1.44-1.8,2.14-3.67,2.14h-3.86c-2.27,0-3.91-.48-4.9-1.44-.98-.96-1.48-2.53-1.48-4.67v-9.33h-5.62v9.33c0,2.11-.49,3.67-1.45,4.64s-2.49,1.46-4.54,1.46-3.57-.49-4.51-1.46c-.95-.98-1.43-2.55-1.43-4.65v-14.33h-5.61v2.27c-1.11-.13-2.09-.2-2.91-.2-4.17,0-7.64,1.09-10.33,3.24-2.69,2.15-4.05,5.25-4.05,9.21,0,2.87.94,5.36,2.79,7.42,1.85,2.08,4.29,3.13,7.25,3.13,4.01,0,6.79-1.79,8.24-5.31.81,1.9,2.11,3.4,3.85,4.47,1.84,1.14,4.11,1.72,6.72,1.72,4.09,0,7.2-1.32,9.24-3.92,1.66,2.6,4.59,3.92,8.75,3.92h3.86c3.36,0,5.92-1.18,7.61-3.52,2.53,2.39,5.43,3.61,8.62,3.61,1.71,0,3.35-.38,4.9-1.14,1.46-.73,2.72-1.74,3.73-3.05,1.63,2.71,4.6,4.1,8.84,4.1s7.2-1.32,9.24-3.92c1.66,2.6,4.6,3.92,8.75,3.92s7.2-1.32,9.24-3.92c1.66,2.6,4.59,3.92,8.75,3.92,3.59,0,6.45-1.05,8.51-3.1,2.05-2.05,3.1-4.91,3.1-8.51v-20.92h-5.64ZM562.49,595.2c0,2.41-.58,4.38-1.74,5.83-1.14,1.45-2.71,2.19-4.63,2.19-1.65,0-2.97-.51-3.92-1.54-.97-1.02-1.45-2.27-1.45-3.71,0-2.22.84-3.96,2.51-5.19,1.66-1.25,3.84-1.89,6.46-1.89.9,0,1.84.08,2.79.25v4.07ZM616.01,602.34c-1.07,1.16-2.42,1.74-4.01,1.74-2.32,0-4.44-1.11-6.33-3.31.29-1.53.61-2.94.95-4.16.51-1.88,1.21-3.27,2.05-4.15.82-.87,1.91-1.32,3.19-1.32,1.67,0,3.07.6,4.14,1.8,1.08,1.18,1.62,2.75,1.62,4.63,0,1.99-.53,3.59-1.62,4.76Z"/>
    <rect class="cls-2" x="682.84" y="576.98" width="5.62" height="32.51"/>
    <path class="cls-2" d="M721.91,583.17c.86,0,1.61-.31,2.23-.92.62-.62.94-1.38.94-2.27s-.32-1.64-.94-2.26c-.62-.61-1.38-.92-2.23-.92s-1.61.31-2.23.92c-.62.62-.94,1.38-.94,2.26s.32,1.65.94,2.27c.62.61,1.38.92,2.23.92Z"/>
    <path class="cls-2" d="M734.07,589.15c-2.11-2.4-4.84-3.63-8.12-3.63-3.51,0-6.35,1.26-8.41,3.75-2.06,2.47-3.11,5.39-3.11,8.69,0,3.1.95,5.82,2.82,8.08,1.88,2.28,4.48,3.44,7.73,3.44,2.86,0,5.11-1.12,6.73-3.31v1.62c0,3.27-.88,5.63-2.63,7.01-1.76,1.38-4.71,2.09-8.79,2.09-7.81,0-11.78-3.28-11.78-9.76,0-1.38.15-2.84.44-4.31l.03-.18h-5.18l-.02.11c-.5,2.07-.75,3.97-.75,5.65,0,4.65,1.62,8.21,4.83,10.57,3.2,2.35,7.38,3.55,12.42,3.55,5.48,0,9.72-1.26,12.6-3.73,2.89-2.47,4.35-6.17,4.35-11v-9c.02-3.99-1.06-7.24-3.16-9.65ZM729.62,602.42c-1.14,1.05-2.37,1.58-3.67,1.58-1.84,0-3.33-.65-4.4-1.92-1.08-1.27-1.63-2.79-1.63-4.51s.54-3.23,1.61-4.51c1.06-1.27,2.52-1.92,4.34-1.92,1.64,0,3.03.64,4.14,1.91,1.11,1.26,1.69,3.1,1.72,5.43-.26,1.57-.96,2.9-2.11,3.95Z"/>
    <path class="cls-2" d="M729.81,583.17c.86,0,1.61-.31,2.23-.92.62-.62.94-1.38.94-2.27s-.32-1.64-.94-2.26c-.62-.61-1.38-.92-2.23-.92s-1.61.31-2.23.92c-.62.62-.94,1.38-.94,2.26s.32,1.65.94,2.27c.62.61,1.38.92,2.23.92Z"/>
    <path class="cls-2" d="M762.64,589.15c-2.11-2.4-4.84-3.63-8.12-3.63-3.61,0-6.47,1.26-8.52,3.75-2.04,2.47-3.08,5.39-3.08,8.69s.94,5.85,2.79,8.12c1.87,2.27,4.51,3.42,7.84,3.42,2.86,0,5.11-1.12,6.73-3.31v.17c0,2.84-.7,4.96-2.1,6.3-1.41,1.34-3.58,2.02-6.48,2.02-1.26,0-2.58-.1-3.87-.3l-.18-.02-.04,5.27v.13l.13.02c1.83.35,3.56.52,5.16.52,4.06,0,7.27-1.21,9.52-3.59,2.27-2.39,3.4-5.85,3.4-10.29v-7.59c0-4.02-1.06-7.26-3.17-9.67ZM758.31,602.22c-1.16,1.18-2.43,1.77-3.79,1.77-1.93,0-3.45-.64-4.51-1.9-1.06-1.26-1.61-2.79-1.61-4.53s.54-3.26,1.59-4.52c1.05-1.26,2.54-1.91,4.44-1.91,1.58,0,2.95.59,4.03,1.75,1.1,1.17,1.71,2.87,1.83,5.01-.14,1.69-.81,3.15-1.98,4.32Z"/>
    <path class="cls-2" d="M813.76,585.4c.86,0,1.61-.32,2.23-.94.62-.62.94-1.38.94-2.23s-.32-1.61-.94-2.23c-.62-.62-1.38-.94-2.23-.94s-1.61.32-2.23.94c-.62.62-.94,1.38-.94,2.23s.32,1.61.94,2.23c.62.63,1.38.94,2.23.94Z"/>
    <path class="cls-2" d="M854.57,589.21c-2.76-2.41-6.16-3.63-10.09-3.63-3.15,0-5.88.7-8.16,2.06-2.1,1.26-3.77,3.05-4.99,5.31v-7.41h-5.58v18.47h-2.78c-2.27,0-3.91-.48-4.9-1.44-.98-.96-1.48-2.53-1.48-4.67v-9.33h-5.63v9.33c0,2.11-.48,3.67-1.44,4.64s-2.49,1.46-4.54,1.46h-5.07c-2.09,0-3.64-.4-4.63-1.22-.98-.8-1.55-2.11-1.7-3.9v-.52c0-3.95-1.53-7.12-4.54-9.41-2.99-2.28-7.14-3.43-12.33-3.43h-2.79v5.61h2.7c3.93,0,6.84.62,8.65,1.84,1.79,1.21,2.69,3.07,2.69,5.51,0,1.99-.48,3.43-1.43,4.24-.97.84-2.63,1.26-4.95,1.26h-10.11v5.49h10.16c4.43,0,7.69-1.25,9.69-3.71,1.67,2.47,4.57,3.71,8.6,3.71h5.07c4.1,0,7.2-1.32,9.24-3.92,1.66,2.6,4.59,3.92,8.75,3.92h24.17c3.59,0,6.45-1.02,8.51-3.03,2.06-2.01,3.1-4.75,3.1-8.14-.02-3.59-1.42-6.65-4.19-9.08ZM851.69,602.59c-.96.94-2.49,1.41-4.54,1.41h-15.86v-.94c.11-3.3,1.47-6.14,4.05-8.43s5.65-3.45,9.13-3.45c2.52,0,4.62.67,6.24,1.99,1.61,1.3,2.42,3.04,2.42,5.15,0,1.91-.48,3.35-1.44,4.27Z"/>
  </g>
  <g>
    <path class="cls-2" d="M242.58,453.23c-9.04-7.54-22.78-11.95-42.05-13.49-13.52-.95-22.92-3.33-27.93-7.06-4.65-3.46-6.91-8.41-6.91-15.14,0-9.76,3.03-16.26,9.26-19.89,6.82-3.98,17.24-5.99,30.95-5.99,6.29,0,13.22.14,20.4,1.59,13.59,2.75,18.93,5.64,18.93,5.64l7-21.95-3.75-1.12c-13.48-4-27.88-6.03-42.8-6.03-42.78,0-64.46,16.21-64.46,48.17,0,14.86,4.7,25.81,13.98,32.55,8.93,6.51,22.8,10.33,42.39,11.69,13.1.94,22.29,3.72,27.33,8.24,4.91,4.41,7.29,10.04,7.29,17.21,0,9.6-3.16,16.06-9.67,19.76-7.12,4.06-17.76,6.12-31.63,6.12-14.97,0-27.45-1.82-37.09-5.4l-3.83-1.42-6.72,21.48,3.68,1.16c13.2,4.15,28.06,6.26,44.16,6.26,43.34,0,65.32-16.21,65.32-48.17,0-15.02-4.66-26.55-13.86-34.23Z"/>
    <rect class="cls-2" x="284.76" y="373.5" width="23.37" height="159.1"/>
    <path class="cls-2" d="M464.45,415.18c-3.01-10.48-7.87-18.9-14.44-25.01-6.5-6.04-14.34-10.38-23.29-12.94-8.71-2.48-19.51-3.73-32.11-3.73h-50.56v159.1h50.56c25.56,0,44.53-6.04,56.37-17.97,11.85-11.92,17.85-32.75,17.85-61.91,0-14.77-1.47-27.41-4.39-37.55ZM433.52,499.88c-7.08,7.93-20.18,11.96-38.91,11.96h-27.19v-117.57h27.18c10.06,0,18.15.74,24.05,2.17,5.51,1.34,10.38,4.07,14.5,8.12,4.07,4.01,6.96,9.76,8.6,17.09,1.74,7.8,2.62,18.26,2.62,31.08,0,23.22-3.65,39.09-10.85,47.15Z"/>
    <polygon class="cls-2" points="600.59 394.27 600.59 373.5 496.71 373.5 496.71 532.6 520.09 532.6 520.09 465.5 582.41 465.5 582.41 444.73 520.09 444.73 520.09 394.27 600.59 394.27"/>
  </g>
  <polygon class="cls-1" points="720.88 373.24 674.91 452.93 698.44 493.75 729.46 493.75 705.92 452.93 736.45 400.21 797.25 400.21 827.77 452.93 797.25 505.64 782.9 505.64 767.33 532.6 812.82 532.6 858.78 452.93 858.78 452.92 812.82 373.24 720.88 373.24"/>
  <polygon class="cls-1" points="661.67 373.24 615.57 452.93 661.67 532.6 753.61 532.6 799.58 452.93 776.04 412.1 744.91 412.1 768.44 452.93 738.04 505.64 677.11 505.64 646.71 452.93 677.11 400.21 691.58 400.21 707.02 373.24 661.67 373.24"/>
</svg>